<?xml version="1.0" standalone="no"?>
<!DOCTYPE svg PUBLIC "-//W3C//DTD SVG 20010904//EN"
 "http://www.w3.org/TR/2001/REC-SVG-20010904/DTD/svg10.dtd">
<svg version="1.0" xmlns="http://www.w3.org/2000/svg"
 width="2388.000000pt" height="1010.000000pt" viewBox="0 0 2388.000000 1010.000000"
 preserveAspectRatio="xMidYMid meet">
<metadata>
Created by potrace 1.16, written by Peter Selinger 2001-2019
</metadata>
<g transform="translate(0.000000,1010.000000) scale(0.100000,-0.100000)"
fill="#000000" stroke="none">
<path d="M17335 8883 c3 -16 20 -45 36 -65 l30 -38 -211 0 c-138 0 -209 -3
-205 -10 4 -6 85 -10 211 -10 l206 0 -26 -30 c-34 -41 -62 -106 -76 -177 -15
-78 -29 -112 -51 -123 -26 -14 -69 -12 -75 3 -3 8 4 56 16 107 11 52 20 95 20
97 0 2 -9 3 -20 3 -13 0 -22 -10 -29 -36 -18 -66 -34 -181 -28 -197 8 -21 71
-23 110 -3 15 8 27 11 27 5 0 -20 40 -8 45 14 25 112 44 211 41 215 -17 16 50
105 96 126 11 5 11 7 0 12 -33 15 -82 68 -92 99 -14 42 -35 48 -25 8z"/>
<path d="M19030 8270 l0 -60 -1972 0 c-1084 0 -1969 -2 -1966 -5 3 -3 890 -5
1972 -5 l1966 0 0 -60 c0 -35 4 -60 11 -60 12 0 300 122 297 125 -6 6 -294
125 -301 125 -4 0 -7 -27 -7 -60z"/>
<path d="M4442 8112 c-72 -48 -132 -90 -132 -94 0 -3 17 -17 37 -30 20 -13 41
-26 46 -29 5 -4 -586 -899 -1314 -1990 -727 -1091 -1323 -1990 -1325 -1999 -2
-11 520 -276 1962 -995 1081 -539 1973 -985 1981 -991 13 -9 12 -17 -11 -61
l-25 -51 57 -6 c31 -3 107 -8 167 -12 l110 -6 -21 23 c-11 13 -60 71 -109 128
l-89 104 -25 -51 c-14 -29 -29 -52 -33 -52 -15 0 -3926 1959 -3933 1970 -4 6
19 50 50 98 32 48 627 939 1322 1980 l1264 1892 45 -31 c25 -17 48 -28 51 -25
7 7 65 308 60 312 -2 2 -62 -36 -135 -84z"/>
<path d="M2816 6792 c-9 -14 16 -71 43 -99 11 -12 21 -24 21 -25 0 -2 -91 -4
-202 -3 -152 0 -202 -3 -205 -12 -4 -10 41 -13 203 -13 l207 0 -20 -22 c-35
-38 -62 -102 -82 -195 -14 -62 -26 -93 -42 -105 -23 -19 -74 -24 -84 -9 -3 5
4 50 15 100 24 111 24 111 1 111 -15 0 -22 -14 -35 -72 -38 -166 -32 -187 47
-174 23 4 57 8 76 9 l34 2 19 85 c10 47 21 107 23 134 6 56 39 107 87 132 l31
16 -41 24 c-29 17 -48 39 -65 75 -13 29 -27 47 -31 41z"/>
<path d="M15800 4125 l0 -1265 -59 0 -60 0 45 -107 c25 -60 54 -128 65 -153
l20 -45 64 150 63 150 -59 3 -59 3 0 1264 c0 837 -3 1265 -10 1265 -7 0 -10
-428 -10 -1265z"/>
<path d="M15456 4262 c-7 -11 28 -84 47 -101 10 -7 17 -16 17 -20 0 -4 -91 -7
-202 -6 -152 0 -202 -3 -205 -12 -4 -10 41 -13 201 -13 l206 0 -30 -42 c-16
-22 -30 -44 -30 -49 0 -4 -30 -58 -67 -120 l-68 -112 -15 99 c-14 91 -17 99
-38 102 -19 3 -23 0 -19 -15 3 -10 13 -64 23 -120 17 -100 18 -103 43 -103 22
0 35 16 94 115 37 62 67 122 67 132 0 30 38 82 76 105 l35 21 -28 17 c-38 23
-59 49 -78 93 -16 38 -20 43 -29 29z"/>
<path d="M4446 3612 c-7 -11 28 -84 47 -101 10 -7 17 -17 17 -21 0 -4 -81 -5
-179 -2 -178 5 -231 0 -231 -18 0 -6 78 -10 207 -10 197 0 205 -1 190 -18 -9
-10 -32 -47 -51 -82 -18 -36 -54 -100 -79 -143 -51 -88 -49 -89 -68 41 -10 68
-16 82 -31 82 -22 0 -22 -9 -1 -137 17 -99 18 -103 43 -103 22 0 35 16 95 116
37 64 69 126 70 138 1 33 32 75 71 98 l35 21 -28 17 c-38 23 -59 49 -78 93
-16 38 -20 43 -29 29z"/>
<path d="M4236 551 c5 -5 18 -11 29 -13 19 -3 20 -11 20 -148 0 -143 0 -145
-22 -148 -13 -2 -23 -8 -23 -13 0 -5 34 -9 75 -9 72 0 105 15 48 22 -27 3 -28
5 -31 71 l-3 67 45 0 c39 0 45 -3 54 -27 9 -23 10 -16 10 42 0 39 -3 61 -5 50
-9 -34 -24 -45 -64 -45 l-39 0 0 70 0 70 73 0 c80 0 94 -8 116 -65 11 -29 11
-29 6 10 -3 22 -5 48 -5 58 0 15 -14 17 -147 17 -88 0 -143 -4 -137 -9z"/>
<path d="M17580 550 c0 -5 11 -10 25 -10 l25 0 0 -150 0 -150 -25 0 c-14 0
-25 -4 -25 -10 0 -6 33 -10 80 -10 47 0 80 4 80 10 0 6 -13 10 -30 10 l-30 0
0 70 0 70 40 0 c33 0 42 -5 54 -27 15 -27 15 -26 15 42 -1 69 -1 70 -15 38
-12 -29 -19 -33 -54 -33 l-40 0 0 70 0 70 70 0 c78 0 110 -19 110 -65 0 -14 4
-25 8 -25 8 0 6 39 -4 88 -4 22 -7 22 -144 22 -87 0 -140 -4 -140 -10z"/>
<path d="M6225 541 c-6 -5 -26 -14 -45 -20 l-35 -11 38 3 38 3 -3 -135 -3
-136 -32 -3 c-67 -7 -30 -22 52 -22 50 0 85 4 85 10 0 6 -13 10 -29 10 -17 0
-31 6 -35 16 -3 9 -6 78 -6 155 0 132 -4 151 -25 130z"/>
<path d="M19505 525 c-32 -31 -35 -85 -6 -85 28 0 36 18 17 39 -9 10 -16 20
-16 24 0 14 63 38 86 33 24 -6 54 -51 54 -81 0 -30 -33 -80 -96 -147 -35 -36
-64 -71 -64 -77 0 -7 32 -11 94 -11 102 0 107 3 105 70 l-1 25 -10 -27 c-9
-27 -12 -28 -80 -28 l-71 0 81 78 c77 72 82 79 82 119 0 34 -6 46 -31 67 -42
36 -110 36 -144 1z"/>
<path d="M4598 463 c20 -14 22 -23 22 -113 0 -90 -2 -99 -22 -113 -22 -15 -21
-16 35 -16 36 -1 56 3 52 9 -3 5 -13 10 -21 10 -11 0 -14 21 -14 110 0 89 3
110 14 110 8 0 18 5 21 10 4 6 -16 10 -52 9 -56 0 -57 -1 -35 -16z"/>
<path d="M4779 441 c-35 -35 -39 -44 -39 -91 0 -48 4 -56 40 -92 39 -39 40
-40 97 -34 32 3 68 6 81 7 19 1 22 7 22 39 0 21 6 41 13 43 6 3 -15 5 -48 5
-33 -1 -48 -3 -32 -5 22 -4 27 -9 27 -33 0 -33 -23 -50 -65 -50 -58 0 -95 47
-95 120 0 75 37 120 100 120 35 0 80 -40 80 -71 0 -11 5 -19 10 -19 6 0 10 23
10 50 0 51 -6 60 -28 38 -9 -9 -15 -9 -24 0 -7 7 -34 12 -61 12 -44 0 -54 -4
-88 -39z"/>
<path d="M5063 466 c13 -10 17 -28 17 -83 0 -84 13 -126 45 -147 37 -24 92
-20 120 9 22 21 25 33 25 104 0 88 5 111 26 111 8 0 14 5 14 10 0 6 -18 10
-40 10 -40 0 -53 -13 -25 -24 12 -4 15 -24 15 -94 0 -80 -2 -91 -23 -110 -27
-25 -65 -28 -93 -8 -16 12 -20 29 -22 111 -4 84 -2 98 15 110 16 13 12 14 -37
14 -48 0 -53 -1 -37 -13z"/>
<path d="M5373 467 c14 -12 17 -31 17 -121 0 -88 -3 -106 -15 -106 -8 0 -15
-4 -15 -10 0 -5 23 -10 52 -10 l52 0 -22 20 c-16 15 -22 33 -22 60 0 40 0 40
38 40 46 0 62 -14 62 -56 0 -18 7 -40 16 -48 22 -23 71 -20 84 4 7 14 7 20 0
20 -5 0 -10 -7 -10 -15 0 -8 -9 -15 -20 -15 -15 0 -21 9 -26 42 -4 22 -15 49
-24 58 -17 17 -16 19 12 40 36 26 34 55 -5 84 -22 16 -46 22 -110 24 -72 2
-80 1 -64 -11z m130 -11 c24 -6 27 -11 27 -45 0 -44 -10 -51 -71 -51 l-39 0 0
43 c0 46 15 70 40 63 8 -2 27 -7 43 -10z"/>
<path d="M5660 470 c0 -5 7 -10 15 -10 12 0 15 -19 15 -110 0 -91 -3 -110 -15
-110 -8 0 -15 -4 -15 -10 0 -6 43 -10 109 -10 120 0 122 1 120 75 l-1 30 -9
-31 c-13 -44 -29 -54 -90 -57 l-54 -2 -3 58 c-3 51 -1 57 17 57 30 0 51 -11
51 -26 0 -8 5 -14 10 -14 6 0 10 20 10 45 0 46 -14 61 -23 25 -4 -15 -14 -20
-36 -20 -31 0 -31 1 -31 50 l0 50 53 0 c62 0 75 -7 87 -46 8 -26 9 -24 7 16
l-2 45 -107 3 c-70 2 -108 -1 -108 -8z"/>
<path d="M17943 466 c14 -11 17 -30 17 -116 0 -86 -3 -105 -17 -116 -16 -12
-10 -13 40 -14 36 0 56 4 52 10 -3 5 -13 10 -21 10 -11 0 -14 21 -14 108 0
103 1 110 23 120 18 9 12 11 -38 11 -52 0 -58 -1 -42 -13z"/>
<path d="M18143 459 c-44 -28 -69 -95 -54 -141 23 -66 66 -98 133 -98 26 0 50
5 53 10 4 6 15 8 26 5 16 -5 19 -1 19 24 0 16 7 37 16 45 14 15 10 16 -43 15
-40 -1 -50 -3 -33 -8 31 -9 40 -49 14 -68 -32 -23 -83 -16 -115 16 -26 26 -29
36 -29 91 0 55 3 65 29 91 52 52 120 33 150 -41 8 -21 10 -17 10 29 1 45 -1
52 -13 42 -11 -9 -20 -9 -35 -2 -31 17 -93 12 -128 -10z"/>
<path d="M18411 467 c13 -10 18 -34 20 -106 4 -87 6 -94 32 -117 39 -33 99
-33 132 1 23 22 25 32 25 113 0 82 2 91 23 105 21 16 21 16 -20 16 -42 1 -57
-11 -28 -23 12 -4 15 -24 15 -91 0 -78 -2 -88 -25 -110 -31 -32 -78 -33 -99
-3 -24 34 -23 196 2 214 15 12 10 13 -38 13 -46 0 -52 -2 -39 -12z"/>
<path d="M18705 470 c3 -5 13 -10 21 -10 11 0 14 -21 14 -109 0 -104 -1 -109
-22 -116 -22 -8 -22 -8 4 -12 15 -2 42 -2 60 0 30 4 31 5 11 12 -20 6 -23 14
-23 56 l0 49 38 0 c48 0 62 -14 62 -61 0 -45 18 -61 62 -57 24 2 34 8 36 23 2
18 2 18 -8 3 -21 -34 -50 -16 -50 31 0 10 -9 30 -20 44 l-21 26 20 11 c53 28
46 81 -14 106 -40 16 -180 20 -170 4z m163 -23 c15 -12 16 -59 0 -75 -7 -7
-31 -12 -55 -12 l-43 0 0 49 c0 30 5 51 13 54 16 6 69 -3 85 -16z"/>
<path d="M19000 470 c0 -5 7 -10 15 -10 12 0 15 -18 15 -106 0 -90 -3 -109
-17 -120 -15 -11 -1 -13 94 -14 61 0 114 3 116 8 3 4 7 27 11 52 l5 45 -16
-37 c-12 -29 -24 -40 -52 -48 -82 -23 -101 -12 -101 57 l0 54 32 -3 c23 -2 36
-11 45 -28 12 -23 13 -21 13 30 0 52 -1 53 -16 32 -10 -14 -25 -22 -45 -22
-28 0 -29 1 -29 50 l0 51 62 -3 c61 -3 64 -4 81 -38 l18 -35 -6 34 c-3 18 -5
40 -5 47 0 11 -23 14 -110 14 -67 0 -110 -4 -110 -10z"/>
</g>
</svg>
