<?xml version="1.0" standalone="no"?>
<!DOCTYPE svg PUBLIC "-//W3C//DTD SVG 20010904//EN"
 "http://www.w3.org/TR/2001/REC-SVG-20010904/DTD/svg10.dtd">
<svg version="1.0" xmlns="http://www.w3.org/2000/svg"
 width="2440.000000pt" height="1030.000000pt" viewBox="0 0 2440.000000 1030.000000"
 preserveAspectRatio="xMidYMid meet">
<metadata>
Created by potrace 1.16, written by Peter Selinger 2001-2019
</metadata>
<g transform="translate(0.000000,1030.000000) scale(0.100000,-0.100000)"
fill="#000000" stroke="none">
<path d="M2241 8653 c76 -95 185 -222 191 -222 4 -1 19 21 33 49 l25 50 1270
-635 c699 -349 1274 -635 1280 -635 5 0 10 3 10 8 0 4 -574 294 -1275 645
l-1275 637 25 50 c14 27 25 51 25 53 0 2 -51 7 -112 11 -62 4 -138 10 -167 13
l-55 6 25 -30z"/>
<path d="M4200 8671 c0 -22 23 -68 48 -93 l26 -28 -207 0 c-126 0 -208 -4
-212 -10 -4 -7 67 -10 206 -10 l212 0 -20 -22 c-32 -35 -70 -125 -88 -211 -19
-86 -37 -107 -92 -107 -43 0 -43 -7 2 188 5 20 2 23 -17 20 -19 -3 -24 -15
-40 -88 -11 -47 -18 -98 -16 -115 3 -28 6 -30 45 -33 23 -2 52 2 65 9 16 9 23
9 26 0 4 -11 42 -16 42 -6 0 3 9 48 21 101 11 53 22 114 24 135 4 46 34 91 75
116 30 17 39 33 20 33 -20 0 -79 63 -90 95 -11 32 -30 48 -30 26z"/>
<path d="M14850 7272 c0 -7 594 -904 1321 -1993 726 -1090 1322 -1986 1325
-1993 2 -6 -16 -24 -41 -39 -25 -16 -45 -32 -45 -35 1 -4 62 -47 137 -95 129
-84 135 -87 130 -60 -3 15 -15 84 -28 153 -12 69 -26 129 -30 134 -4 4 -28 -6
-53 -23 l-45 -32 -1322 1983 c-727 1091 -1327 1990 -1335 1998 -10 10 -14 10
-14 2z"/>
<path d="M17714 7229 c112 -132 180 -209 186 -209 3 0 17 22 30 49 l23 50
1278 -639 c703 -352 1281 -635 1284 -630 3 5 -567 296 -1267 646 -700 350
-1275 638 -1277 640 -3 2 6 27 19 54 13 27 22 52 19 54 -2 2 -76 7 -163 11
l-160 8 28 -34z"/>
<path d="M18740 6436 c0 -27 21 -71 46 -97 l25 -26 -184 5 c-184 5 -243 0
-232 -18 4 -6 88 -10 207 -10 191 0 200 -1 186 -17 -9 -10 -27 -40 -40 -68
-14 -27 -50 -92 -80 -143 -63 -106 -53 -111 -79 41 -9 55 -14 67 -30 67 -23 0
-23 -2 -4 -115 21 -121 23 -125 49 -125 19 0 36 21 91 113 37 61 69 124 71
139 4 38 30 74 70 99 l34 21 -41 30 c-25 18 -48 47 -60 74 -21 46 -29 54 -29
30z"/>
<path d="M16840 5836 c0 -8 15 -36 33 -63 l33 -50 -182 5 c-182 5 -240 0 -229
-18 4 -6 90 -10 212 -10 l207 0 -26 -27 c-36 -40 -65 -108 -80 -188 -9 -52
-19 -77 -39 -97 -27 -28 -72 -37 -84 -18 -5 9 16 139 32 193 4 15 0 18 -18 15
-21 -3 -25 -13 -41 -88 -25 -123 -24 -148 7 -156 14 -3 46 0 70 9 25 8 45 10
45 6 0 -5 9 -9 20 -9 11 0 20 1 20 3 0 2 9 43 20 93 10 49 22 109 25 132 7 56
16 73 65 115 l41 35 -36 20 c-21 13 -43 39 -57 67 -22 45 -38 58 -38 31z"/>
<path d="M6100 4424 c0 -22 18 -54 48 -86 l26 -28 -212 0 c-135 0 -212 -4
-212 -10 0 -6 77 -10 212 -10 l212 0 -27 -27 c-14 -16 -32 -42 -39 -58 -19
-43 -131 -235 -136 -231 -3 4 -32 172 -32 189 0 4 -9 7 -20 7 -24 0 -24 -1 -5
-115 21 -122 23 -125 50 -125 20 0 36 20 90 110 37 61 68 121 69 133 5 42 52
100 98 121 10 5 10 7 0 12 -32 15 -82 68 -94 100 -13 35 -28 46 -28 18z"/>
<path d="M7750 4433 c-19 -1 -76 -6 -127 -9 l-92 -6 24 -49 c14 -26 25 -51 25
-54 0 -3 -571 -291 -1269 -640 -698 -349 -1272 -639 -1276 -645 -3 -5 -1 -10
4 -10 6 0 583 286 1281 635 698 349 1271 635 1273 635 2 0 14 -23 27 -50 13
-28 27 -49 30 -48 9 4 210 237 210 244 0 4 -50 3 -110 -3z"/>
<path d="M4715 1021 l30 -6 3 -139 c3 -145 -1 -161 -41 -169 -12 -2 16 -4 63
-5 69 0 79 2 53 9 l-33 10 0 69 0 70 39 0 c40 0 55 -11 64 -45 2 -11 5 12 4
50 0 39 -2 60 -4 47 -5 -24 -38 -42 -79 -42 -23 0 -24 2 -24 75 l0 75 59 0
c85 0 108 -11 122 -60 16 -53 23 -44 14 19 l-7 51 -146 -1 c-81 -1 -133 -4
-117 -8z"/>
<path d="M6640 1012 c-25 -12 -36 -25 -38 -44 -3 -22 1 -28 17 -28 27 0 38 20
17 35 -14 11 -14 14 -2 24 20 16 72 17 91 1 19 -16 19 -53 0 -90 -12 -23 -22
-30 -46 -30 -18 0 -28 -4 -24 -10 3 -5 19 -10 34 -10 34 0 49 -15 57 -58 13
-66 -31 -114 -88 -97 -40 13 -51 26 -31 40 21 15 11 45 -16 45 -24 0 -34 -25
-21 -50 27 -51 109 -66 167 -30 60 36 52 126 -13 150 l-25 10 30 27 c46 43 46
84 -1 113 -41 25 -63 25 -108 2z"/>
<path d="M18060 1021 l25 -7 0 -149 0 -149 -25 -7 c-14 -4 11 -7 60 -7 50 0
73 3 55 7 -30 6 -30 7 -33 79 l-3 72 33 0 c39 0 50 -7 65 -40 10 -22 12 -16
12 45 0 56 -2 66 -11 50 -16 -30 -39 -45 -70 -45 l-28 0 0 75 0 75 65 0 c57 0
69 -3 90 -25 14 -13 25 -33 25 -45 0 -11 4 -20 8 -20 4 0 5 21 2 48 l-5 47
-145 2 c-80 1 -134 -2 -120 -6z"/>
<path d="M20005 913 c-44 -63 -81 -120 -83 -124 -2 -5 28 -9 68 -9 l71 0 -3
-32 c-2 -25 -9 -34 -28 -39 -15 -4 5 -7 50 -7 62 0 70 1 48 10 -22 7 -28 16
-28 39 0 26 4 29 33 30 l32 1 -30 7 -30 6 -3 118 c-1 64 -6 117 -10 117 -4 0
-43 -53 -87 -117z m63 -30 l-3 -88 -64 -3 c-34 -2 -61 1 -60 5 11 25 115 173
122 173 4 0 6 -39 5 -87z"/>
<path d="M5271 943 c-95 -47 -94 -191 2 -236 44 -21 86 -22 114 -2 14 10 24
12 28 5 13 -22 25 -8 25 30 0 27 6 42 18 49 13 8 1 10 -48 10 -42 -1 -56 -3
-40 -8 19 -5 26 -15 28 -37 3 -26 -2 -33 -26 -43 -37 -15 -74 -6 -104 26 -19
20 -23 35 -23 89 0 56 3 67 27 91 38 38 92 37 124 -1 13 -15 24 -34 24 -42 0
-8 5 -14 10 -14 6 0 10 23 10 52 0 48 -1 50 -17 35 -16 -13 -21 -14 -43 -2
-33 19 -68 18 -109 -2z"/>
<path d="M18624 946 c-94 -41 -107 -167 -23 -229 37 -26 103 -34 132 -14 16
10 28 12 34 6 7 -7 12 4 16 32 3 23 11 46 19 50 8 5 -11 8 -47 8 -41 -1 -52
-3 -35 -8 37 -10 40 -54 5 -77 -22 -14 -32 -15 -65 -5 -48 14 -70 50 -70 116
0 62 22 101 63 114 55 19 99 -6 117 -66 7 -23 8 -17 9 32 0 45 -2 56 -10 43
-9 -16 -13 -17 -39 -3 -35 18 -65 18 -106 1z"/>
<path d="M5058 940 c21 -9 22 -15 22 -115 0 -100 -1 -106 -22 -115 -18 -7 -9
-9 37 -9 46 0 55 2 38 9 -22 9 -23 15 -23 115 0 100 1 106 23 115 17 7 8 9
-38 9 -46 0 -55 -2 -37 -9z"/>
<path d="M5521 943 c14 -3 17 -22 21 -98 3 -82 7 -98 28 -120 41 -44 112 -42
147 4 7 10 12 49 13 99 0 68 3 85 20 102 l20 20 -42 0 c-34 -1 -39 -3 -25 -11
14 -8 17 -25 17 -98 0 -98 -12 -125 -62 -137 -21 -4 -33 0 -52 20 -24 23 -26
32 -26 116 0 85 1 91 23 100 16 7 7 9 -38 8 -33 0 -53 -2 -44 -5z"/>
<path d="M5828 940 c21 -9 22 -15 22 -115 0 -100 -1 -106 -22 -115 -17 -7 -8
-9 37 -8 33 0 52 2 43 5 -21 5 -31 38 -26 79 2 23 9 30 30 32 46 5 68 -14 68
-58 0 -41 26 -70 62 -70 18 0 52 29 43 38 -3 3 -11 -3 -19 -13 -17 -24 -34
-12 -42 30 -3 20 -15 46 -25 59 -19 24 -19 25 1 31 26 8 43 40 35 65 -11 35
-57 50 -147 49 -60 0 -77 -3 -60 -9z m146 -13 c24 -18 24 -67 0 -84 -11 -8
-35 -13 -54 -11 -30 3 -35 7 -38 32 -7 55 5 76 41 76 18 0 41 -6 51 -13z"/>
<path d="M6128 940 c21 -9 22 -15 22 -115 0 -100 -1 -106 -22 -115 -16 -6 14
-9 93 -9 113 -1 117 0 123 22 3 12 5 33 5 47 0 23 -2 22 -12 -8 -16 -43 -31
-52 -94 -52 l-53 0 0 55 c0 55 0 55 31 55 22 0 32 -5 36 -20 9 -36 23 -21 23
24 0 47 -14 69 -23 36 -4 -15 -14 -20 -36 -20 -31 0 -31 1 -31 50 l0 50 44 0
c60 0 76 -8 92 -44 l13 -31 1 43 0 42 -117 -1 c-81 0 -111 -3 -95 -9z"/>
<path d="M18403 943 c15 -4 17 -18 17 -118 0 -100 -2 -114 -17 -118 -10 -3 9
-5 42 -5 45 -1 54 1 38 8 -22 9 -23 15 -23 115 0 100 1 106 23 115 16 7 7 9
-38 8 -33 0 -52 -2 -42 -5z"/>
<path d="M18873 943 c14 -4 17 -17 17 -88 0 -96 10 -125 50 -148 42 -25 77
-21 111 12 28 28 29 34 29 115 0 76 2 86 22 100 22 15 20 16 -27 15 -28 0 -43
-3 -35 -6 25 -10 30 -25 30 -100 0 -87 -13 -119 -54 -133 -25 -9 -35 -7 -56 8
-23 18 -25 25 -28 120 -2 89 -1 101 15 105 10 3 -7 5 -37 5 -30 0 -47 -2 -37
-5z"/>
<path d="M19178 940 c21 -9 22 -15 22 -115 0 -100 -1 -106 -22 -115 -18 -7 -9
-9 37 -9 46 0 55 2 38 9 -20 8 -23 17 -23 60 0 50 0 50 33 50 46 0 60 -13 66
-61 5 -34 12 -47 33 -59 32 -17 61 -6 65 26 2 14 0 13 -7 -4 -14 -34 -33 -23
-50 30 -8 25 -20 52 -27 60 -10 11 -8 16 7 26 11 6 24 21 30 32 9 17 6 25 -19
50 -28 29 -33 30 -118 29 -63 0 -82 -3 -65 -9z m143 -10 c13 -7 19 -21 19 -45
0 -40 -20 -55 -74 -55 l-36 0 0 48 c0 27 3 52 7 55 10 11 62 8 84 -3z"/>
<path d="M19473 943 c15 -4 17 -18 17 -118 0 -100 -2 -114 -17 -118 -10 -3 35
-5 100 -6 115 -1 117 -1 117 22 0 12 3 33 7 46 4 17 3 22 -5 17 -7 -4 -12 -16
-12 -26 0 -30 -39 -50 -97 -50 l-53 0 0 55 0 55 33 0 c25 0 37 -6 45 -22 9
-20 11 -15 11 32 0 47 -2 52 -11 33 -8 -17 -20 -23 -45 -23 l-34 0 3 48 c3 47
3 47 42 50 60 5 83 -4 95 -40 14 -40 22 -32 14 15 l-6 37 -111 -1 c-61 -1
-103 -3 -93 -6z"/>
</g>
</svg>
