<?xml version="1.0" standalone="no"?>
<!DOCTYPE svg PUBLIC "-//W3C//DTD SVG 20010904//EN"
 "http://www.w3.org/TR/2001/REC-SVG-20010904/DTD/svg10.dtd">
<svg version="1.0" xmlns="http://www.w3.org/2000/svg"
 width="2388.000000pt" height="1046.000000pt" viewBox="0 0 2388.000000 1046.000000"
 preserveAspectRatio="xMidYMid meet">
<metadata>
Created by potrace 1.16, written by Peter Selinger 2001-2019
</metadata>
<g transform="translate(0.000000,1046.000000) scale(0.100000,-0.100000)"
fill="#000000" stroke="none">
<path d="M21542 8542 c-342 -512 -625 -932 -628 -932 -3 0 -26 14 -50 31 -25
17 -47 29 -48 27 -6 -8 -58 -309 -54 -313 2 -3 65 34 138 82 l133 87 -28 21
c-15 11 -37 27 -49 36 -20 17 -12 30 597 944 340 510 616 932 614 938 -2 7
-283 -408 -625 -921z"/>
<path d="M21100 9100 c0 -17 30 -72 53 -97 l20 -23 -206 0 c-131 0 -207 -4
-207 -10 0 -6 75 -10 205 -10 l205 0 -29 -42 c-33 -48 -48 -88 -32 -88 5 0 19
20 30 45 13 29 32 52 55 66 20 12 36 24 36 27 -1 4 -15 16 -33 27 -18 11 -42
40 -55 65 -22 44 -42 63 -42 40z"/>
<path d="M20846 8778 c3 -29 8 -82 12 -118 6 -55 10 -65 27 -68 17 -2 30 15
72 98 l51 101 7 -101 c7 -95 9 -100 30 -100 19 0 34 20 84 114 34 63 61 117
61 120 0 3 -8 6 -18 6 -12 0 -33 -30 -69 -102 l-52 -103 -2 58 c-1 31 -3 62
-4 67 -1 6 -3 26 -4 45 -1 29 -5 35 -24 35 -19 0 -31 -16 -67 -90 -49 -100
-58 -100 -59 2 -1 70 -8 88 -32 88 -17 0 -19 -6 -13 -52z"/>
<path d="M4935 8733 c3 -16 20 -45 36 -65 l30 -38 -206 0 c-161 0 -206 -3
-202 -12 3 -10 53 -13 205 -13 111 1 202 -1 202 -3 0 -2 -13 -20 -29 -40 -33
-42 -46 -78 -32 -86 5 -4 14 9 20 27 11 33 58 85 95 104 18 10 18 11 -5 23
-40 21 -78 61 -90 97 -13 40 -34 45 -24 6z"/>
<path d="M5390 8165 l-595 -595 -42 42 c-23 23 -44 40 -46 37 -2 -2 -31 -72
-64 -155 l-60 -151 151 60 c83 33 153 62 155 64 3 2 -14 23 -37 46 l-42 42
595 595 c327 327 595 598 595 602 0 5 -3 8 -8 8 -4 0 -275 -268 -602 -595z"/>
<path d="M4674 8428 c3 -29 8 -83 12 -120 6 -61 9 -68 28 -68 17 0 32 20 73
103 l52 102 1 -50 c0 -27 3 -74 6 -102 6 -47 9 -53 30 -53 19 0 33 18 81 112
32 62 60 116 61 120 2 4 -5 8 -15 8 -13 0 -33 -28 -70 -100 l-51 -101 -7 88
c-8 107 -10 113 -32 113 -13 0 -33 -29 -70 -102 l-52 -103 -1 65 c-1 103 -9
140 -32 140 -18 0 -20 -5 -14 -52z"/>
<path d="M1698 7203 c-31 -76 -60 -146 -64 -155 -5 -16 1 -18 55 -18 l61 0 0
-1262 c0 -695 2 -1263 5 -1263 3 0 5 568 5 1263 l0 1262 65 0 64 0 -40 97
c-22 53 -52 123 -67 155 l-27 58 -57 -137z"/>
<path d="M2330 6215 c0 -21 36 -92 52 -102 7 -4 -78 -10 -190 -13 -271 -7
-272 -25 -2 -25 110 0 200 -1 200 -3 0 -2 -11 -18 -24 -35 -13 -18 -27 -43
-31 -57 -4 -14 -11 -27 -15 -30 -3 -3 -14 -41 -24 -85 -20 -94 -35 -121 -72
-128 -60 -11 -63 -2 -35 126 l19 87 -22 0 c-20 0 -24 -10 -43 -101 -22 -109
-21 -135 8 -142 18 -5 67 4 102 18 10 4 17 3 17 -4 0 -6 8 -11 18 -11 16 0 22
18 41 108 12 59 24 122 26 140 5 42 38 88 78 109 29 15 30 17 13 27 -45 27
-65 49 -85 91 -22 47 -31 56 -31 30z"/>
<path d="M17070 5868 c-80 -33 -147 -61 -149 -64 -3 -2 13 -22 34 -44 l40 -40
-1303 -1303 c-716 -716 -1302 -1309 -1302 -1317 0 -8 589 574 1310 1295 l1310
1310 43 -43 44 -43 61 152 c34 84 61 153 59 154 -1 1 -67 -24 -147 -57z"/>
<path d="M20865 5903 c3 -16 20 -45 36 -65 l30 -38 -211 0 c-138 0 -209 -3
-205 -10 4 -6 85 -10 211 -10 l206 0 -26 -31 c-15 -17 -33 -45 -40 -63 -8 -17
-41 -77 -73 -133 l-60 -102 -12 82 c-18 118 -21 127 -42 127 -23 0 -23 7 1
-125 11 -60 20 -111 20 -113 0 -2 12 -2 27 0 22 2 38 22 95 117 38 62 67 116
64 118 -17 17 49 106 96 127 11 5 11 7 0 12 -33 15 -82 68 -92 99 -14 42 -35
48 -25 8z"/>
<path d="M21858 5293 l-3 -58 -1263 -3 c-836 -1 -1261 -5 -1257 -12 4 -7 440
-10 1266 -10 l1259 0 0 -55 c0 -30 3 -55 8 -55 10 0 275 111 285 120 6 5 -153
77 -280 127 -8 3 -13 -13 -15 -54z"/>
<path d="M15456 5222 c-7 -11 28 -84 47 -101 10 -7 17 -16 17 -20 0 -4 -91 -7
-202 -6 -152 0 -202 -3 -205 -12 -4 -10 41 -13 202 -13 l206 0 -24 -32 c-38
-51 -54 -91 -73 -180 -20 -91 -45 -128 -89 -128 -37 0 -41 22 -22 114 21 101
21 106 -2 106 -15 0 -22 -17 -41 -105 -12 -58 -19 -112 -16 -120 3 -8 17 -17
30 -21 23 -5 44 -1 100 22 14 5 17 4 12 -4 -5 -8 1 -12 16 -12 22 0 25 8 46
108 12 59 22 118 22 132 0 36 35 88 76 112 l35 21 -28 17 c-38 23 -59 49 -78
93 -16 38 -20 43 -29 29z"/>
<path d="M3285 3774 c8 -19 24 -48 35 -65 l21 -29 -205 0 c-131 0 -206 -4
-206 -10 0 -6 75 -10 205 -10 l205 0 -30 -42 c-16 -22 -30 -46 -30 -53 0 -21
-130 -228 -134 -214 -2 8 -10 51 -17 97 -11 78 -27 108 -46 88 -4 -3 2 -58 12
-121 19 -113 19 -115 46 -115 23 0 35 14 93 111 36 61 66 120 66 131 0 32 37
85 76 109 l35 21 -36 22 c-39 24 -75 71 -75 99 0 9 -7 17 -15 17 -14 0 -14 -4
0 -36z"/>
<path d="M19690 3521 c0 -22 23 -68 48 -93 l26 -28 -207 0 c-126 0 -208 -4
-212 -10 -4 -7 67 -10 206 -10 l212 0 -20 -22 c-23 -25 -53 -81 -53 -98 0 -23
17 -8 34 31 11 24 34 52 57 67 37 26 49 42 29 42 -20 0 -79 63 -90 95 -11 32
-30 48 -30 26z"/>
<path d="M19585 3238 c-2 -7 -5 -22 -7 -33 -2 -13 -12 -21 -31 -23 -31 -4 -38
-32 -7 -32 24 0 24 0 5 -92 -21 -97 -15 -118 31 -118 42 0 74 15 74 36 0 11
-4 12 -19 4 -27 -14 -48 -13 -54 3 -3 7 2 48 10 90 l16 77 37 0 c53 0 63 28
12 32 -35 3 -37 5 -34 36 3 24 0 32 -13 32 -8 0 -17 -6 -20 -12z"/>
<path d="M4270 3170 l0 -60 -1260 3 c-1003 2 -1260 -1 -1260 -10 0 -10 259
-13 1260 -13 l1260 0 0 -55 c0 -30 4 -55 9 -55 12 0 302 122 299 126 -6 5
-291 124 -299 124 -5 0 -9 -27 -9 -60z"/>
<path d="M20240 2794 c-1059 -177 -1944 -325 -1967 -329 l-41 -6 -7 56 c-4 30
-11 55 -17 55 -11 0 -268 -163 -268 -170 0 -3 64 -20 143 -39 78 -18 148 -36
156 -39 11 -4 13 6 7 55 -6 58 -6 61 16 66 13 3 896 150 1963 328 1067 177
1944 325 1948 329 5 4 5 10 0 12 -4 2 -874 -141 -1933 -318z"/>
<path d="M4247 1103 c40 -8 44 -24 41 -169 l-3 -139 -30 -6 c-17 -4 6 -7 55
-7 49 0 72 3 55 7 -30 6 -30 7 -33 79 l-3 72 34 0 c38 0 63 -16 70 -45 3 -11
5 12 5 50 0 39 -3 61 -5 50 -9 -34 -24 -45 -65 -45 l-39 0 3 73 3 72 45 3 c25
2 62 -1 82 -7 30 -9 39 -19 52 -54 l16 -42 -5 40 c-3 22 -5 48 -5 58 0 15 -13
17 -147 16 -82 -1 -138 -4 -126 -6z"/>
<path d="M17600 1101 l25 -7 0 -149 0 -149 -25 -7 c-14 -4 12 -7 60 -6 47 0
70 2 53 4 l-33 4 0 75 0 74 28 0 c31 0 54 -15 70 -45 9 -16 11 -6 11 50 0 61
-2 67 -12 45 -15 -33 -26 -40 -64 -40 l-33 0 0 76 0 76 71 -4 c60 -3 74 -8 90
-27 11 -13 19 -34 19 -47 0 -13 4 -24 8 -24 8 0 6 39 -4 88 -4 22 -7 22 -147
21 -78 -1 -131 -4 -117 -8z"/>
<path d="M19573 1098 c-117 -31 -139 -277 -29 -323 40 -17 73 -10 108 23 59
54 39 152 -36 181 -34 13 -39 13 -66 -8 l-30 -22 0 31 c0 62 41 110 94 110 27
0 44 -16 24 -22 -16 -6 -2 -38 17 -38 9 0 15 9 15 24 0 40 -41 59 -97 44z m59
-152 c15 -22 9 -129 -9 -148 -21 -24 -58 -23 -83 2 -23 23 -28 106 -9 141 20
39 77 41 101 5z"/>
<path d="M6160 1018 c0 -78 6 -91 30 -63 19 23 66 19 84 -7 24 -34 21 -119 -4
-146 -26 -27 -70 -28 -101 -3 -23 18 -23 20 -7 38 20 22 9 49 -16 40 -37 -14
-11 -82 39 -102 82 -35 176 50 145 131 -25 66 -86 93 -141 64 -17 -10 -19 -7
-19 35 l0 45 41 0 c36 0 99 25 99 40 0 3 -34 5 -75 5 l-75 0 0 -77z"/>
<path d="M4815 1020 c-100 -49 -102 -185 -5 -235 34 -17 106 -20 116 -4 3 6
17 8 30 5 22 -6 24 -4 24 34 0 22 5 40 10 40 6 0 10 5 10 10 0 6 -25 10 -57 9
-53 -1 -55 -2 -30 -12 20 -8 27 -18 27 -39 0 -69 -120 -60 -150 12 -20 49 -8
129 24 157 50 43 116 27 144 -35 l17 -37 3 49 c3 52 -2 66 -19 49 -8 -8 -20
-7 -45 3 -44 18 -51 18 -99 -6z"/>
<path d="M18165 1021 c-100 -45 -108 -167 -16 -228 39 -26 97 -30 127 -9 13
10 23 11 31 4 10 -8 13 -3 13 20 0 17 7 37 15 46 24 23 19 26 -42 25 -53 -1
-55 -2 -30 -12 49 -19 26 -87 -29 -87 -37 0 -78 25 -92 55 -7 14 -12 48 -12
75 0 64 35 110 85 110 51 0 66 -9 86 -54 l19 -41 0 54 c0 44 -2 51 -14 42 -10
-8 -20 -8 -42 4 -37 19 -50 19 -99 -4z"/>
<path d="M4598 1020 c21 -9 22 -15 22 -115 0 -100 -1 -106 -22 -115 -18 -7 -9
-9 37 -9 46 0 55 2 38 9 -22 9 -23 15 -23 115 0 100 1 106 23 115 17 7 8 9
-38 9 -46 0 -55 -2 -37 -9z"/>
<path d="M5062 1018 c12 -10 17 -36 20 -98 3 -48 10 -95 18 -107 31 -48 106
-58 145 -18 23 22 25 32 25 110 0 72 3 88 20 105 l20 20 -42 0 c-38 -1 -41 -2
-25 -14 14 -11 17 -29 17 -100 0 -79 -2 -89 -25 -111 -32 -33 -68 -32 -94 1
-18 23 -21 41 -21 116 0 83 2 89 23 98 17 7 8 9 -37 9 -50 1 -57 -1 -44 -11z"/>
<path d="M5368 1020 c21 -9 22 -15 22 -119 0 -96 -2 -110 -17 -114 -10 -3 7
-5 37 -5 30 0 47 2 38 5 -21 5 -31 38 -26 79 2 24 8 30 34 32 40 4 64 -19 64
-62 0 -19 8 -40 18 -49 26 -23 69 -22 82 3 13 24 2 27 -15 3 -16 -22 -33 -9
-41 32 -3 20 -15 46 -25 59 -18 23 -18 23 6 34 37 17 42 50 11 81 -24 24 -34
26 -119 28 -66 2 -86 0 -69 -7z m154 -18 c14 -14 13 -59 -2 -77 -8 -9 -29 -15
-56 -15 l-44 0 0 39 c0 65 7 74 53 68 22 -3 44 -10 49 -15z"/>
<path d="M5668 1018 c21 -10 22 -17 22 -119 0 -94 -2 -108 -17 -112 -10 -3 32
-5 93 -6 123 -1 125 0 123 62 l-1 32 -9 -30 c-12 -42 -35 -55 -96 -55 l-53 0
0 55 c0 55 0 55 31 55 22 0 32 -5 36 -20 9 -36 23 -21 23 25 0 25 -4 45 -10
45 -5 0 -10 -6 -10 -14 0 -15 -21 -26 -51 -26 -16 0 -19 7 -19 55 l0 55 38 0
c60 0 83 -11 98 -44 l14 -31 -2 40 -3 40 -115 2 c-90 2 -110 0 -92 -9z"/>
<path d="M17943 1019 c14 -9 17 -26 17 -119 0 -95 -2 -109 -17 -113 -10 -3 9
-5 42 -4 33 0 50 2 38 4 -22 4 -23 8 -23 114 0 104 1 110 23 119 17 7 8 9 -38
9 -45 0 -56 -2 -42 -10z"/>
<path d="M18413 1019 c14 -8 17 -24 17 -89 0 -91 12 -126 51 -146 43 -22 83
-17 113 12 24 25 26 33 26 115 0 79 2 89 22 103 22 15 21 16 -27 16 -48 0 -49
-1 -27 -16 20 -14 22 -24 22 -100 0 -77 -2 -87 -25 -109 -29 -30 -68 -32 -95
-5 -17 17 -20 33 -20 115 0 79 3 96 18 104 13 8 4 10 -38 10 -42 0 -51 -2 -37
-10z"/>
<path d="M18718 1020 c21 -9 22 -15 22 -115 0 -100 -1 -106 -22 -115 -18 -7
-9 -9 37 -9 46 0 55 2 38 9 -20 8 -23 17 -23 60 0 48 1 50 28 50 43 0 72 -26
72 -65 0 -43 24 -67 64 -63 22 2 32 9 34 23 2 18 2 18 -8 3 -16 -27 -39 -22
-46 10 -9 44 -26 82 -35 82 -17 0 -9 19 9 25 11 3 24 16 30 30 10 21 8 29 -12
52 -23 26 -29 28 -118 30 -67 2 -87 0 -70 -7z m153 -22 c13 -19 11 -62 -3 -76
-7 -7 -31 -12 -55 -12 l-43 0 0 48 c0 27 3 52 8 56 11 12 84 -1 93 -16z"/>
<path d="M19013 1019 c14 -9 17 -26 17 -119 0 -95 -2 -109 -17 -113 -10 -3 35
-5 100 -6 115 -1 117 -1 117 22 0 12 3 33 7 46 4 17 3 22 -5 17 -7 -4 -12 -15
-12 -25 0 -33 -33 -51 -93 -51 l-57 0 0 55 c0 54 0 55 29 55 20 0 35 -8 45
-22 15 -21 16 -20 16 32 0 51 -1 53 -13 30 -9 -18 -22 -26 -45 -28 l-33 -3 3
53 c3 53 3 53 39 56 49 4 88 -13 99 -44 14 -36 21 -26 13 19 l-6 37 -111 0
c-80 -1 -106 -3 -93 -11z"/>
</g>
</svg>
