<?xml version="1.0" standalone="no"?>
<!DOCTYPE svg PUBLIC "-//W3C//DTD SVG 20010904//EN"
 "http://www.w3.org/TR/2001/REC-SVG-20010904/DTD/svg10.dtd">
<svg version="1.0" xmlns="http://www.w3.org/2000/svg"
 width="2502.000000pt" height="1018.000000pt" viewBox="0 0 2502.000000 1018.000000"
 preserveAspectRatio="xMidYMid meet">
<metadata>
Created by potrace 1.16, written by Peter Selinger 2001-2019
</metadata>
<g transform="translate(0.000000,1018.000000) scale(0.100000,-0.100000)"
fill="#000000" stroke="none">
<path d="M1798 9692 c-32 -75 -60 -145 -64 -154 -5 -16 1 -18 55 -18 l61 0 -2
-1957 -3 -1958 -48 -3 c-59 -4 -52 -22 9 -22 l44 0 -2 -692 -3 -693 -703 0
c-461 0 -702 -3 -702 -10 0 -7 241 -10 702 -10 l703 0 3 -1412 c1 -931 5
-1413 12 -1413 7 0 10 482 10 1415 l0 1415 695 0 695 0 0 -55 c0 -30 5 -55 10
-55 6 0 10 25 10 55 l0 55 3370 0 3369 0 3 -64 3 -64 130 55 c72 30 141 59
155 65 22 8 9 16 -129 74 -84 35 -155 64 -157 64 -2 0 -4 -27 -4 -60 l0 -60
-3370 0 -3370 0 0 50 c0 28 -4 50 -10 50 -5 0 -10 -22 -10 -50 l0 -50 -691 0
-691 0 19 29 c117 183 2620 3931 2626 3931 4 0 26 -14 49 -30 23 -17 43 -28
45 -26 4 3 63 302 63 316 0 4 -61 -33 -135 -82 -74 -49 -135 -92 -135 -96 0
-4 21 -19 46 -34 30 -19 43 -32 38 -40 -20 -33 -2607 -3914 -2615 -3923 -5 -5
-9 277 -9 668 l0 677 44 0 c25 0 48 5 51 10 4 6 -13 10 -44 10 l-51 0 0 1960
0 1960 59 0 60 0 -45 108 c-25 59 -55 128 -67 154 l-22 47 -57 -137z"/>
<path d="M15142 9683 c-34 -82 -62 -151 -62 -155 0 -5 25 -8 55 -8 l55 0 0
-1960 0 -1960 -51 0 c-31 0 -48 -4 -44 -10 3 -5 26 -10 51 -10 l44 0 0 -695 0
-695 -700 2 c-462 2 -700 0 -700 -7 0 -7 238 -9 700 -7 l700 2 0 -1415 c0
-1125 3 -1415 13 -1415 9 0 12 289 12 1412 l0 1413 695 0 695 0 3 -53 c4 -66
22 -59 22 8 l0 50 3368 -3 3367 -2 5 -61 5 -61 140 59 c77 32 143 62 147 66 6
6 -153 79 -283 130 -4 2 -9 -23 -11 -55 l-3 -58 -3367 -2 -3368 -3 0 45 c0 60
-18 67 -22 8 l-3 -48 -695 0 -695 0 -2 693 -3 692 50 0 c64 0 66 18 3 22 l-48
3 0 1400 0 1400 1958 3 1957 2 0 -60 c0 -33 2 -60 4 -60 2 0 73 29 157 64 138
58 151 66 129 74 -14 6 -83 35 -155 66 l-130 55 -3 -59 -3 -60 -1959 0 -1960
0 0 545 0 545 60 0 c33 0 60 3 60 7 0 7 -119 295 -124 301 -2 1 -31 -64 -64
-145z"/>
<path d="M2200 9663 c0 -10 9 -50 19 -90 18 -70 18 -72 -1 -103 -15 -26 -23
-31 -43 -26 -18 5 -25 2 -25 -9 0 -23 44 -18 67 8 24 26 141 201 149 222 4 9
0 15 -8 15 -7 0 -34 -33 -58 -72 -33 -54 -46 -68 -48 -53 -14 88 -25 125 -38
125 -8 0 -14 -8 -14 -17z"/>
<path d="M15540 9675 c0 -3 10 -44 21 -91 l22 -85 -21 -27 c-12 -17 -28 -26
-41 -25 -13 2 -21 -3 -21 -13 0 -11 8 -14 28 -12 22 2 41 24 109 128 45 68 80
126 78 128 -12 12 -36 -13 -71 -73 l-39 -67 -15 69 c-11 49 -20 69 -33 71 -9
2 -17 1 -17 -3z"/>
<path d="M17430 9111 c0 -19 44 -90 64 -103 6 -4 -82 -8 -196 -8 -123 0 -209
-4 -213 -10 -11 -18 46 -22 226 -18 98 2 179 3 179 1 0 -1 -13 -24 -30 -50
-16 -26 -30 -50 -30 -54 0 -4 -29 -55 -64 -114 l-64 -106 -11 83 c-16 109 -19
118 -42 118 -10 0 -19 -1 -19 -2 0 -2 9 -55 20 -118 11 -63 20 -116 20 -117 0
-2 11 -3 24 -3 21 0 36 18 91 110 37 61 68 121 69 133 5 40 35 85 72 108 l37
23 -24 15 c-38 25 -68 61 -81 97 -13 37 -28 45 -28 15z"/>
<path d="M2915 6983 c3 -16 20 -45 36 -65 l30 -38 -205 0 c-122 0 -207 -4
-211 -10 -11 -18 47 -23 231 -18 101 3 184 2 184 -1 -1 -3 -14 -22 -30 -41
-17 -19 -30 -38 -30 -44 0 -5 -30 -61 -67 -124 l-68 -115 -15 99 c-14 91 -17
99 -38 102 -19 3 -23 0 -19 -15 3 -10 14 -64 23 -121 17 -100 18 -103 43 -100
20 2 38 25 93 116 37 62 67 116 67 120 -6 36 32 91 84 122 l29 18 -23 12 c-40
21 -78 62 -90 97 -13 40 -34 45 -24 6z"/>
<path d="M1640 5735 c-14 -8 -33 -14 -42 -15 -10 0 -18 -7 -18 -16 0 -12 7
-14 30 -9 l29 6 0 -110 0 -111 -29 0 c-20 0 -30 -5 -30 -15 0 -12 15 -15 75
-15 60 0 75 3 75 15 0 10 -10 15 -30 15 l-29 0 -3 134 -3 134 -25 -13z"/>
<path d="M14980 5734 c-14 -7 -33 -14 -42 -14 -10 0 -18 -7 -18 -16 0 -12 7
-14 30 -9 l30 7 0 -111 0 -111 -25 0 c-16 0 -25 -6 -25 -15 0 -12 15 -15 76
-15 56 0 75 3 72 13 -3 6 -17 13 -31 15 l-27 3 0 135 c0 74 -3 134 -7 133 -5
-1 -19 -7 -33 -15z"/>
<path d="M9980 4643 c0 -3 12 -22 26 -40 l26 -35 -48 -49 c-29 -29 -42 -49
-33 -49 8 0 30 16 49 35 19 19 37 35 41 35 4 0 17 -16 29 -35 12 -19 28 -35
36 -35 20 0 17 9 -15 55 l-28 39 46 43 c54 49 38 58 -20 11 -42 -34 -42 -34
-70 15 -9 16 -39 24 -39 10z"/>
<path d="M23329 4633 c6 -10 20 -29 31 -43 l20 -25 -53 -47 c-35 -32 -46 -47
-35 -48 10 0 36 17 59 37 34 31 42 35 50 22 19 -34 46 -62 58 -58 7 3 0 20
-21 48 l-32 44 49 44 c39 34 45 43 29 43 -11 0 -33 -13 -49 -30 -16 -16 -32
-30 -36 -30 -4 0 -16 14 -26 30 -9 17 -26 30 -36 30 -14 0 -16 -4 -8 -17z"/>
<path d="M3260 3885 c-14 -8 -33 -14 -42 -15 -10 0 -18 -7 -18 -16 0 -12 7
-14 30 -9 l30 7 0 -111 0 -111 -30 0 c-20 0 -30 -5 -30 -15 0 -12 15 -15 75
-15 60 0 75 3 75 15 0 10 -10 15 -30 15 l-29 0 -3 134 -3 134 -25 -13z"/>
<path d="M16600 3884 c-14 -7 -33 -14 -42 -14 -10 0 -18 -7 -18 -16 0 -12 7
-14 30 -9 l30 7 0 -111 0 -111 -25 0 c-16 0 -25 -6 -25 -15 0 -12 15 -15 76
-15 56 0 75 3 72 13 -3 6 -17 13 -31 15 l-27 3 0 135 c0 74 -3 134 -7 133 -5
-1 -19 -7 -33 -15z"/>
<path d="M4336 761 c5 -5 18 -11 29 -13 19 -3 20 -11 20 -148 0 -143 0 -145
-22 -148 -13 -2 -23 -8 -23 -13 0 -5 34 -9 75 -9 72 0 105 15 48 22 -27 3 -28
5 -31 71 l-3 67 45 0 c39 0 45 -3 54 -27 9 -23 10 -16 10 42 0 39 -3 61 -5 50
-9 -34 -24 -45 -64 -45 l-39 0 0 70 0 70 73 0 c80 0 94 -8 116 -65 11 -29 11
-29 6 10 -3 22 -5 48 -5 58 0 15 -14 17 -147 17 -88 0 -143 -4 -137 -9z"/>
<path d="M6245 745 c-3 -14 -7 -37 -10 -51 -4 -16 -2 -23 5 -19 5 3 10 13 10
21 0 11 17 14 81 14 61 0 78 -3 73 -12 -5 -7 -23 -33 -40 -58 -54 -75 -82
-175 -59 -206 20 -29 32 -8 38 70 6 79 20 115 74 185 18 24 33 48 33 52 0 5
-36 9 -81 9 -44 0 -89 5 -99 10 -17 9 -20 6 -25 -15z"/>
<path d="M17680 760 c0 -5 11 -10 25 -10 l25 0 0 -150 0 -150 -25 0 c-14 0
-25 -4 -25 -10 0 -6 33 -10 80 -10 47 0 80 4 80 10 0 6 -13 10 -30 10 l-30 0
0 70 0 70 40 0 c33 0 42 -5 54 -27 15 -27 15 -26 15 42 -1 69 -1 70 -15 38
-12 -29 -19 -33 -54 -33 l-40 0 0 70 0 70 70 0 c78 0 110 -19 110 -65 0 -14 4
-25 8 -25 8 0 6 39 -4 88 -4 22 -7 22 -144 22 -87 0 -140 -4 -140 -10z"/>
<path d="M19616 739 c-35 -27 -36 -80 -2 -114 l25 -24 -35 -35 c-41 -41 -44
-77 -10 -111 66 -66 190 -26 190 62 0 28 -7 42 -33 65 l-34 30 27 24 c54 51
17 124 -64 124 -23 0 -48 -8 -64 -21z m114 -9 c27 -27 25 -62 -5 -90 l-25 -24
-43 30 c-49 35 -58 65 -25 88 31 22 74 20 98 -4z m-25 -167 c47 -31 55 -41 55
-70 0 -49 -100 -73 -140 -33 -28 28 -26 75 5 105 30 31 32 31 80 -2z"/>
<path d="M4698 673 c20 -14 22 -23 22 -113 0 -90 -2 -99 -22 -113 -22 -15 -21
-16 35 -16 36 -1 56 3 52 9 -3 6 -13 10 -21 10 -11 0 -14 21 -14 110 0 89 3
110 14 110 8 0 18 5 21 10 4 6 -16 10 -52 9 -56 0 -57 -1 -35 -16z"/>
<path d="M4879 651 c-35 -35 -39 -44 -39 -91 0 -48 4 -56 40 -92 39 -39 40
-40 97 -34 32 3 68 6 81 7 19 1 22 7 22 39 0 21 6 41 13 43 6 3 -15 5 -48 5
-33 -1 -48 -3 -32 -5 22 -4 27 -9 27 -33 0 -33 -23 -50 -65 -50 -58 0 -95 47
-95 120 0 75 37 120 100 120 35 0 80 -40 80 -71 0 -11 5 -19 10 -19 6 0 10 23
10 50 0 51 -6 60 -28 38 -9 -9 -15 -9 -24 0 -7 7 -34 12 -61 12 -44 0 -54 -4
-88 -39z"/>
<path d="M5163 676 c13 -10 17 -28 17 -83 0 -84 13 -126 45 -147 37 -24 92
-20 120 9 22 21 25 33 25 104 0 88 5 111 26 111 8 0 14 5 14 10 0 6 -18 10
-40 10 -40 0 -53 -13 -25 -24 12 -4 15 -24 15 -94 0 -80 -2 -91 -23 -110 -27
-25 -65 -28 -93 -8 -16 12 -20 29 -22 111 -4 84 -2 98 15 110 16 13 12 14 -37
14 -48 0 -53 -1 -37 -13z"/>
<path d="M5473 677 c14 -12 17 -31 17 -121 0 -88 -3 -106 -15 -106 -8 0 -15
-4 -15 -10 0 -5 23 -10 52 -10 l52 0 -22 20 c-16 15 -22 33 -22 60 0 40 0 40
38 40 46 0 62 -14 62 -56 0 -18 7 -40 16 -48 22 -23 71 -20 84 4 7 14 7 20 0
20 -5 0 -10 -7 -10 -15 0 -8 -9 -15 -20 -15 -15 0 -21 9 -26 42 -4 22 -15 49
-24 58 -17 17 -16 19 12 40 36 26 34 55 -5 84 -22 16 -46 22 -110 24 -72 2
-80 1 -64 -11z m130 -11 c24 -6 27 -11 27 -45 0 -44 -10 -51 -71 -51 l-39 0 0
43 c0 46 15 70 40 63 8 -2 27 -7 43 -10z"/>
<path d="M5760 680 c0 -5 7 -10 15 -10 12 0 15 -19 15 -110 0 -91 -3 -110 -15
-110 -8 0 -15 -4 -15 -10 0 -6 43 -10 109 -10 120 0 122 1 120 75 l-1 30 -9
-31 c-13 -44 -29 -54 -90 -57 l-54 -2 -3 58 c-3 51 -1 57 17 57 30 0 51 -11
51 -26 0 -8 5 -14 10 -14 6 0 10 20 10 45 0 46 -14 61 -23 25 -4 -15 -14 -20
-36 -20 -31 0 -31 1 -31 50 l0 50 53 0 c62 0 75 -7 87 -46 8 -26 9 -24 7 16
l-2 45 -107 3 c-70 2 -108 -1 -108 -8z"/>
<path d="M18043 676 c14 -11 17 -30 17 -116 0 -86 -3 -105 -17 -116 -16 -12
-10 -13 40 -14 36 0 56 4 52 10 -3 6 -13 10 -21 10 -11 0 -14 21 -14 108 0
103 1 110 23 120 18 9 12 11 -38 11 -52 0 -58 -1 -42 -13z"/>
<path d="M18243 669 c-44 -28 -69 -95 -54 -141 23 -66 66 -98 133 -98 26 0 50
5 53 10 4 6 15 8 26 5 16 -5 19 -1 19 24 0 16 7 37 16 45 14 15 10 16 -43 15
-40 -1 -50 -3 -33 -8 31 -9 40 -49 14 -68 -32 -23 -83 -16 -115 16 -26 26 -29
36 -29 91 0 55 3 65 29 91 52 52 120 33 150 -41 8 -21 10 -17 10 29 1 45 -1
52 -13 42 -11 -9 -20 -9 -35 -2 -31 17 -93 12 -128 -10z"/>
<path d="M18511 677 c13 -10 18 -34 20 -106 4 -87 6 -94 32 -117 39 -33 99
-33 132 1 23 22 25 32 25 113 0 82 2 91 23 105 21 16 21 16 -20 16 -42 1 -57
-11 -28 -23 12 -4 15 -24 15 -91 0 -78 -2 -88 -25 -110 -31 -32 -78 -33 -99
-3 -24 34 -23 196 2 214 15 12 10 13 -38 13 -46 0 -52 -2 -39 -12z"/>
<path d="M18805 680 c3 -5 13 -10 21 -10 11 0 14 -21 14 -109 0 -104 -1 -109
-22 -116 -22 -8 -22 -8 4 -12 15 -2 42 -2 60 0 30 4 31 5 11 12 -20 6 -23 14
-23 56 l0 49 38 0 c48 0 62 -14 62 -61 0 -45 18 -61 62 -57 24 2 34 8 36 23 2
18 2 18 -8 3 -21 -34 -50 -16 -50 31 0 10 -9 30 -20 44 l-21 26 20 11 c53 28
46 81 -14 106 -40 16 -180 20 -170 4z m163 -23 c15 -12 16 -59 0 -75 -7 -7
-31 -12 -55 -12 l-43 0 0 49 c0 30 5 51 13 54 16 6 69 -3 85 -16z"/>
<path d="M19100 680 c0 -5 7 -10 15 -10 12 0 15 -18 15 -106 0 -90 -3 -109
-17 -120 -15 -11 -1 -13 94 -14 61 0 114 3 116 8 3 4 7 27 11 52 l5 45 -16
-37 c-12 -29 -24 -40 -52 -48 -82 -23 -101 -12 -101 57 l0 54 32 -3 c23 -2 36
-11 45 -28 12 -23 13 -21 13 30 0 52 -1 53 -16 32 -10 -14 -25 -22 -45 -22
-28 0 -29 1 -29 50 l0 51 62 -3 c61 -3 64 -4 81 -38 l18 -35 -6 34 c-3 18 -5
40 -5 47 0 11 -23 14 -110 14 -67 0 -110 -4 -110 -10z"/>
</g>
</svg>
