<?xml version="1.0" standalone="no"?>
<!DOCTYPE svg PUBLIC "-//W3C//DTD SVG 20010904//EN"
 "http://www.w3.org/TR/2001/REC-SVG-20010904/DTD/svg10.dtd">
<svg version="1.0" xmlns="http://www.w3.org/2000/svg"
 width="2520.000000pt" height="1018.000000pt" viewBox="0 0 2520.000000 1018.000000"
 preserveAspectRatio="xMidYMid meet">
<metadata>
Created by potrace 1.16, written by Peter Selinger 2001-2019
</metadata>
<g transform="translate(0.000000,1018.000000) scale(0.100000,-0.100000)"
fill="#000000" stroke="none">
<path d="M2058 9762 c-32 -75 -60 -145 -64 -154 -5 -16 1 -18 55 -18 l61 0 0
-1955 0 -1955 -44 0 c-61 0 -68 -18 -9 -22 l48 -3 3 -692 2 -693 -705 0 c-463
0 -705 -3 -705 -10 0 -6 126 -10 358 -10 196 0 512 -1 702 -3 l345 -2 3 -1412
c1 -931 5 -1413 12 -1413 7 0 10 482 10 1415 l0 1415 1400 0 1400 0 0 -50 c0
-67 18 -74 22 -8 l3 53 2663 2 2662 3 0 -60 c0 -42 4 -60 13 -60 22 1 282 116
280 124 -2 8 -270 126 -285 126 -5 0 -8 -25 -8 -55 l0 -55 -2665 0 -2665 0 0
45 c0 25 -4 45 -10 45 -5 0 -10 -20 -10 -45 l0 -45 -1400 0 -1400 0 0 695 0
695 51 0 c31 0 48 4 44 10 -3 6 -26 10 -51 10 l-44 0 0 1955 0 1954 59 3 60 3
-64 149 c-36 82 -66 150 -67 152 -2 1 -29 -59 -60 -134z"/>
<path d="M15402 9756 c-34 -80 -62 -150 -62 -155 0 -7 23 -11 55 -11 l55 0 0
-1250 0 -1250 -45 0 c-25 0 -45 -4 -45 -10 0 -5 20 -10 45 -10 l45 0 0 -1400
0 -1400 -700 0 c-460 0 -700 -3 -700 -10 0 -10 158 -11 1053 -10 l347 0 0
-1409 c0 -929 3 -1412 10 -1416 7 -4 10 116 10 352 0 197 1 833 3 1413 l2
1055 1048 2 1047 3 0 -49 c0 -68 18 -75 22 -9 l3 53 3018 2 3017 3 0 -64 0
-64 143 60 c78 33 146 63 150 68 7 6 -268 130 -288 130 -3 0 -5 -25 -5 -55 l0
-55 -3020 0 -3020 0 0 45 c0 25 -4 45 -10 45 -5 0 -10 -20 -10 -45 l0 -45
-1050 0 -1050 0 3 1398 2 1397 48 3 c63 4 61 22 -3 22 l-50 0 0 1250 0 1250
60 0 c33 0 60 4 60 9 0 8 -118 291 -125 299 -1 1 -30 -63 -63 -142z"/>
<path d="M2460 9733 c0 -10 9 -50 19 -90 17 -66 17 -74 3 -95 -21 -31 -34 -39
-54 -32 -12 3 -18 0 -18 -10 0 -24 43 -20 67 7 23 24 153 221 153 231 0 3 -6
6 -13 6 -7 0 -30 -29 -52 -65 -40 -64 -55 -79 -55 -50 0 41 -23 115 -36 115
-8 0 -14 -8 -14 -17z"/>
<path d="M15800 9745 c0 -3 10 -44 21 -91 l22 -85 -21 -27 c-12 -17 -28 -26
-41 -25 -13 2 -21 -3 -21 -13 0 -11 8 -14 28 -12 22 2 41 24 109 128 45 68 80
126 78 128 -12 12 -36 -13 -71 -72 l-39 -65 -15 67 c-11 48 -20 68 -33 70 -9
2 -17 1 -17 -3z"/>
<path d="M15223 7213 c-50 -17 -56 -33 -13 -33 l30 0 0 -110 0 -110 -25 0
c-16 0 -25 -6 -25 -15 0 -12 15 -15 75 -15 60 0 75 3 75 15 0 10 -10 15 -30
15 l-30 0 0 135 c0 74 -3 134 -7 134 -5 -1 -27 -8 -50 -16z"/>
<path d="M17590 7076 c0 -9 202 -246 210 -246 4 0 17 23 30 50 13 28 25 50 27
50 2 0 577 -287 1279 -638 701 -351 1277 -635 1280 -630 3 4 -568 294 -1268
644 -700 350 -1275 638 -1277 640 -3 3 5 25 17 49 12 25 22 49 22 54 0 5 -48
11 -107 15 -60 3 -132 9 -160 12 -29 4 -53 3 -53 0z"/>
<path d="M18640 6242 c0 -10 13 -39 30 -65 l30 -47 -200 0 c-118 0 -201 -4
-205 -10 -11 -18 47 -23 226 -18 98 3 179 2 179 -2 0 -4 -7 -14 -17 -21 -9 -8
-27 -36 -39 -64 -13 -27 -48 -92 -78 -143 -61 -104 -51 -109 -77 41 -9 55 -14
67 -30 67 -23 0 -23 -1 -4 -109 24 -134 23 -131 48 -131 18 0 36 23 92 117 39
65 69 123 67 130 -5 23 28 73 68 102 l40 29 -39 25 c-34 23 -71 78 -71 106 0
6 -4 11 -10 11 -5 0 -10 -8 -10 -18z"/>
<path d="M1883 5800 c-50 -17 -60 -43 -13 -34 l29 6 -2 -108 -2 -109 -27 -3
c-16 -2 -28 -9 -28 -18 0 -11 17 -14 75 -14 60 0 75 3 75 15 0 10 -10 15 -30
15 l-29 0 -3 133 -3 132 -42 -15z"/>
<path d="M10246 4708 c4 -7 16 -26 28 -42 l20 -29 -49 -44 c-39 -34 -45 -43
-29 -43 11 0 35 16 54 35 l33 35 24 -35 c27 -40 66 -52 41 -12 -47 71 -47 65
2 108 35 30 41 39 25 39 -10 0 -33 -14 -51 -31 l-32 -31 -21 31 c-21 29 -61
46 -45 19z"/>
<path d="M23604 4686 c14 -19 26 -39 26 -45 0 -6 -18 -28 -41 -48 -23 -21 -36
-39 -29 -41 6 -2 29 13 50 33 l39 38 21 -37 c12 -20 28 -36 36 -36 19 0 18 5
-11 48 l-25 36 42 43 c48 49 33 58 -20 12 l-35 -31 -19 31 c-12 18 -28 31 -40
31 -19 0 -19 -2 6 -34z"/>
<path d="M4935 3961 c-6 -5 -21 -11 -34 -13 -37 -5 -39 -28 -2 -28 l31 0 0
-110 0 -110 -30 0 c-20 0 -30 -5 -30 -15 0 -12 15 -15 75 -15 60 0 75 3 75 15
0 9 -9 15 -25 15 l-25 0 0 135 c0 104 -3 135 -13 135 -7 0 -17 -4 -22 -9z"/>
<path d="M17575 3961 c-6 -5 -21 -11 -34 -13 -37 -5 -39 -28 -2 -28 l31 0 0
-110 0 -110 -30 0 c-20 0 -30 -5 -30 -15 0 -12 15 -15 75 -15 60 0 75 3 75 15
0 9 -9 15 -25 15 l-25 0 0 135 c0 104 -3 135 -13 135 -7 0 -17 -4 -22 -9z"/>
<path d="M6000 3532 c0 -10 13 -39 30 -65 l30 -47 -205 0 c-127 0 -205 -4
-205 -10 0 -18 53 -23 231 -18 98 3 179 2 179 -2 0 -4 -7 -14 -17 -21 -9 -8
-27 -36 -39 -64 -13 -27 -48 -92 -78 -143 -61 -104 -51 -109 -77 41 -9 55 -14
67 -30 67 -23 0 -23 -1 -4 -109 24 -134 23 -131 48 -131 18 0 36 23 92 117 38
64 69 124 67 133 -4 23 37 80 75 106 l33 22 -39 25 c-26 17 -45 41 -57 71 -20
48 -34 59 -34 28z"/>
<path d="M7575 3537 c-71 -5 -132 -11 -134 -13 -3 -2 6 -27 19 -54 13 -27 22
-52 19 -54 -2 -2 -577 -290 -1277 -640 -700 -350 -1271 -640 -1268 -644 2 -4
579 280 1283 630 l1278 636 25 -49 c13 -27 27 -49 30 -49 7 0 210 236 210 244
0 7 -5 7 -185 -7z"/>
<path d="M4617 833 c31 -6 34 -26 31 -173 -3 -121 -4 -125 -28 -137 -22 -11
-16 -13 55 -12 50 1 69 4 50 8 -30 6 -30 7 -33 79 l-3 72 39 0 c41 0 56 -11
65 -45 2 -11 5 12 4 50 0 39 -2 60 -4 47 -5 -24 -38 -42 -79 -42 -23 0 -24 2
-24 75 l0 75 59 0 c85 0 108 -11 122 -60 16 -53 23 -44 14 19 l-7 51 -141 -1
c-78 -1 -132 -4 -120 -6z"/>
<path d="M6555 830 c-29 -11 -61 -51 -69 -82 -8 -35 14 -90 45 -112 29 -20 83
-21 99 -1 22 26 28 16 19 -32 -13 -73 -72 -113 -119 -83 -10 6 -11 10 -2 10 6
0 12 9 12 20 0 13 -7 20 -20 20 -27 0 -27 -45 -1 -60 58 -31 129 2 162 74 59
131 -22 290 -126 246z m77 -27 c13 -12 18 -31 18 -72 0 -69 -19 -101 -60 -101
-40 0 -60 32 -60 95 0 30 6 60 16 73 18 26 60 29 86 5z"/>
<path d="M17823 833 l28 -4 -3 -152 -3 -151 -25 -7 c-14 -4 11 -7 60 -7 50 0
73 3 55 7 -30 6 -30 7 -33 79 l-3 72 33 0 c41 0 54 -8 67 -40 8 -20 10 -11 10
45 -1 57 -2 65 -10 44 -10 -27 -33 -39 -76 -39 -22 0 -23 4 -23 75 l0 75 64 0
c74 0 110 -21 120 -71 10 -49 16 -29 9 29 l-6 52 -146 -1 c-80 -1 -134 -4
-118 -6z"/>
<path d="M19796 824 c-11 -8 -32 -14 -48 -14 -15 0 -28 -5 -28 -11 0 -7 12 -9
35 -5 l35 7 0 -135 0 -136 -27 -6 c-52 -11 -48 -12 42 -12 50 0 79 3 65 5 -14
3 -29 9 -35 14 -5 6 -12 77 -15 159 -5 145 -5 148 -24 134z"/>
<path d="M20092 825 c15 -9 32 -24 38 -35 14 -26 13 -213 -2 -245 -13 -29 -53
-43 -77 -28 -34 21 -42 55 -39 166 3 101 5 110 27 128 26 21 6 26 -21 5 -45
-34 -64 -178 -34 -250 38 -90 151 -88 188 2 16 41 13 173 -5 208 -20 38 -34
50 -72 58 l-30 6 27 -15z"/>
<path d="M5171 753 c-68 -33 -92 -124 -51 -191 34 -55 121 -79 167 -47 14 10
24 12 28 5 13 -21 25 -8 25 28 0 21 5 43 12 50 9 9 -1 12 -47 11 -41 -1 -52
-3 -35 -8 19 -5 26 -14 28 -39 3 -27 -1 -34 -24 -42 -37 -14 -76 -4 -105 26
-20 22 -24 36 -24 90 0 56 3 67 27 91 38 38 92 37 124 -1 13 -15 24 -34 24
-42 0 -8 5 -14 10 -14 6 0 10 23 10 52 0 48 -1 50 -17 35 -16 -13 -21 -14 -43
-2 -33 19 -68 18 -109 -2z"/>
<path d="M18381 753 c-68 -33 -92 -124 -51 -191 34 -55 121 -79 167 -47 14 10
24 12 28 5 13 -21 25 -8 25 28 0 21 5 43 12 50 9 9 -1 12 -47 11 -41 -1 -52
-3 -35 -8 19 -5 26 -14 28 -39 3 -27 -1 -34 -24 -42 -37 -14 -76 -4 -105 26
-20 22 -24 36 -24 90 0 56 3 67 27 91 38 38 92 37 124 -1 13 -15 24 -34 24
-42 0 -8 5 -14 10 -14 6 0 10 23 10 52 0 48 -1 50 -17 35 -16 -13 -21 -14 -43
-2 -33 19 -68 18 -109 -2z"/>
<path d="M4958 750 c21 -9 22 -15 22 -115 0 -100 -1 -106 -22 -115 -18 -7 -9
-9 37 -9 46 0 55 2 38 9 -22 9 -23 15 -23 115 0 100 1 106 23 115 17 7 8 9
-38 9 -46 0 -55 -2 -37 -9z"/>
<path d="M5421 753 c14 -3 17 -22 21 -100 4 -93 5 -96 36 -124 34 -31 69 -36
105 -17 39 20 46 40 47 126 0 68 3 85 20 102 l20 20 -42 0 c-34 -1 -39 -3 -25
-11 14 -8 17 -25 17 -98 0 -98 -12 -125 -62 -137 -21 -4 -33 0 -52 20 -24 23
-26 32 -26 115 0 75 3 92 18 100 13 8 4 10 -38 10 -30 -1 -48 -3 -39 -6z"/>
<path d="M5733 749 c14 -8 17 -25 17 -114 0 -89 -3 -106 -17 -114 -14 -8 -5
-10 37 -10 30 1 47 3 38 6 -21 5 -31 38 -26 79 2 23 9 30 30 32 46 5 68 -14
68 -58 0 -41 26 -70 62 -70 18 0 52 29 43 38 -3 3 -11 -3 -19 -13 -17 -24 -34
-12 -42 30 -3 20 -15 46 -25 59 -19 24 -19 25 1 31 26 8 43 40 35 65 -11 34
-57 50 -142 50 -58 -1 -73 -3 -60 -11z m141 -12 c24 -18 24 -67 0 -84 -11 -8
-35 -13 -54 -11 -30 3 -35 7 -38 32 -7 55 5 76 41 76 18 0 41 -6 51 -13z"/>
<path d="M6033 749 c14 -8 17 -26 17 -114 0 -89 -3 -106 -17 -114 -13 -8 13
-10 93 -11 107 0 112 1 118 23 3 12 5 33 5 47 0 23 -2 22 -12 -8 -16 -43 -31
-52 -94 -52 l-53 0 0 55 c0 55 0 55 31 55 22 0 32 -5 36 -20 3 -11 9 -17 14
-14 12 7 11 81 -1 89 -5 3 -10 -1 -10 -10 0 -14 -36 -35 -61 -35 -5 0 -9 25
-9 55 l0 55 44 0 c60 0 76 -8 92 -44 l14 -31 -2 40 -3 40 -110 2 c-80 2 -105
0 -92 -8z"/>
<path d="M18168 750 c21 -9 22 -15 22 -115 0 -100 -1 -106 -22 -115 -18 -7 -9
-9 37 -9 46 0 55 2 38 9 -22 9 -23 15 -23 115 0 100 1 106 23 115 17 7 8 9
-38 9 -46 0 -55 -2 -37 -9z"/>
<path d="M18631 753 c14 -3 17 -22 21 -100 4 -93 5 -96 36 -124 34 -31 69 -36
105 -17 39 20 46 40 47 126 0 68 3 85 20 102 l20 20 -42 0 c-34 -1 -39 -3 -25
-11 14 -8 17 -25 17 -98 0 -98 -12 -125 -62 -137 -21 -4 -33 0 -52 20 -24 23
-26 32 -26 115 0 75 3 92 18 100 13 8 4 10 -38 10 -30 -1 -48 -3 -39 -6z"/>
<path d="M18943 749 c14 -8 17 -25 17 -114 0 -89 -3 -106 -17 -114 -14 -8 -5
-10 37 -10 30 1 47 3 38 6 -21 5 -31 38 -26 79 2 23 9 30 30 32 46 5 68 -14
68 -58 0 -41 26 -70 62 -70 18 0 52 29 43 38 -3 3 -11 -3 -19 -13 -17 -24 -34
-12 -42 30 -3 20 -15 46 -25 59 -19 24 -19 25 1 31 26 8 43 40 35 65 -11 34
-57 50 -142 50 -58 -1 -73 -3 -60 -11z m141 -12 c24 -18 24 -67 0 -84 -11 -8
-35 -13 -54 -11 -30 3 -35 7 -38 32 -7 55 5 76 41 76 18 0 41 -6 51 -13z"/>
<path d="M19243 749 c14 -8 17 -26 17 -114 0 -89 -3 -106 -17 -114 -13 -8 13
-10 93 -11 107 0 112 1 118 23 3 12 5 33 5 47 0 23 -2 22 -12 -8 -16 -43 -31
-52 -94 -52 l-53 0 0 55 c0 55 0 55 31 55 22 0 32 -5 36 -20 3 -11 9 -17 14
-14 12 7 11 81 -1 89 -5 3 -10 -1 -10 -10 0 -14 -36 -35 -61 -35 -5 0 -9 25
-9 55 l0 55 44 0 c60 0 76 -8 92 -44 l14 -31 -2 40 -3 40 -110 2 c-80 2 -105
0 -92 -8z"/>
</g>
</svg>
