<?xml version="1.0" standalone="no"?>
<!DOCTYPE svg PUBLIC "-//W3C//DTD SVG 20010904//EN"
 "http://www.w3.org/TR/2001/REC-SVG-20010904/DTD/svg10.dtd">
<svg version="1.0" xmlns="http://www.w3.org/2000/svg"
 width="2426.000000pt" height="992.000000pt" viewBox="0 0 2426.000000 992.000000"
 preserveAspectRatio="xMidYMid meet">
<metadata>
Created by potrace 1.16, written by Peter Selinger 2001-2019
</metadata>
<g transform="translate(0.000000,992.000000) scale(0.100000,-0.100000)"
fill="#000000" stroke="none">
<path d="M230 9654 c0 -2 23 -61 51 -131 28 -71 55 -139 60 -152 l10 -24 45
44 44 43 1652 -1652 1652 -1652 -34 -35 c-44 -45 -30 -59 15 -15 l35 34 1040
-1039 c572 -572 1040 -1043 1040 -1047 0 -4 -1265 -7 -2810 -5 -1868 1 -2810
-1 -2810 -8 0 -7 946 -9 2822 -8 l2823 3 1415 -1415 c778 -778 1418 -1414
1423 -1412 4 1 -625 634 -1398 1407 -773 773 -1405 1408 -1405 1412 0 5 309 7
688 5 l687 -2 3 -53 c4 -66 22 -59 22 9 l0 49 1250 0 1250 0 0 -66 c0 -36 4
-64 9 -62 90 35 291 123 291 128 0 5 -201 93 -291 128 -5 2 -9 -24 -9 -57 l0
-61 -1250 0 -1250 0 0 44 c0 61 -18 68 -22 9 l-3 -48 -700 -3 -700 -2 -1047
1047 c-577 577 -1048 1053 -1048 1059 0 6 11 21 25 34 14 13 25 30 25 39 0 10
-11 4 -33 -17 -18 -18 -37 -32 -42 -32 -6 0 -751 742 -1658 1648 l-1647 1648
40 39 c22 21 40 42 40 46 0 4 -67 34 -150 67 -82 33 -150 59 -150 56z"/>
<path d="M723 9415 c20 -81 20 -87 5 -113 -12 -18 -25 -27 -43 -27 -14 1 -25
-5 -25 -12 0 -7 11 -13 25 -13 28 0 51 26 136 158 44 68 55 93 42 90 -10 -2
-37 -34 -60 -73 -29 -46 -43 -62 -43 -48 0 12 -5 44 -12 72 -8 37 -16 51 -28
51 -16 0 -16 -7 3 -85z"/>
<path d="M23103 9348 c2 -7 12 -48 22 -90 17 -72 17 -78 1 -102 -10 -16 -26
-26 -41 -26 -16 0 -25 -6 -25 -15 0 -16 17 -19 46 -8 24 9 178 247 163 252
-14 4 -29 -14 -72 -89 l-32 -55 -14 73 c-11 60 -17 72 -33 72 -12 0 -18 -5
-15 -12z"/>
<path d="M23233 8941 c-50 -4 -94 -9 -98 -13 -3 -3 5 -28 18 -55 l25 -49
-1974 -987 c-1086 -543 -1976 -987 -1977 -987 -2 0 -12 18 -22 40 -10 22 -22
40 -27 40 -12 0 -10 -6 12 -50 l20 -40 -228 -114 -229 -114 -359 359 -359 359
43 43 42 43 -152 61 c-84 34 -153 61 -154 60 -1 -1 25 -71 59 -155 l61 -153
43 43 43 43 357 -357 356 -356 -1166 -584 -1167 -583 -705 353 -705 352 15 30
c27 51 35 80 25 80 -6 0 -20 -21 -32 -47 -13 -27 -23 -49 -24 -51 -2 -3 -1105
546 -1113 554 -3 3 5 25 17 50 12 25 20 49 17 53 -2 5 -68 11 -146 15 -78 4
-148 10 -155 13 -29 11 -11 -15 91 -135 l105 -123 27 55 26 54 559 -279 c307
-153 558 -281 558 -284 0 -3 -9 -23 -20 -45 -22 -42 -25 -60 -11 -60 4 0 18
23 29 50 l21 50 693 -346 c381 -190 695 -348 697 -350 2 -1 -628 -319 -1400
-705 -772 -385 -1406 -703 -1408 -705 -35 -33 224 93 1420 692 l1414 706 3532
-1766 c1943 -971 3535 -1761 3538 -1756 3 5 -1578 802 -3515 1770 -1936 968
-3520 1762 -3520 1765 0 7 2298 1155 2313 1155 6 0 752 -740 1656 -1644 905
-905 1649 -1642 1654 -1639 5 3 -732 747 -1638 1653 l-1648 1648 223 112 c173
87 225 109 232 98 5 -7 16 -26 25 -43 21 -39 29 -16 8 25 -9 17 -13 35 -10 41
7 11 3920 1969 3935 1969 5 0 21 -23 36 -51 14 -28 29 -48 33 -43 26 31 179
212 190 227 13 16 9 17 -50 15 -35 -1 -105 -4 -156 -7z"/>
<path d="M5275 7660 l-600 -600 -42 42 c-23 23 -44 40 -46 37 -11 -14 -124
-299 -118 -299 11 0 285 111 293 119 5 4 -10 25 -32 46 l-40 39 601 602 c331
331 597 604 592 607 -5 3 -279 -264 -608 -593z"/>
<path d="M4810 8240 c0 -17 30 -72 53 -97 l20 -23 -206 0 c-126 0 -208 -4
-212 -10 -4 -7 67 -10 206 -10 205 0 212 -1 195 -18 -9 -11 -29 -43 -44 -73
-16 -30 -53 -96 -83 -148 l-54 -95 -14 102 c-14 97 -16 102 -39 102 -16 0 -22
-5 -19 -13 3 -7 13 -61 22 -120 17 -100 19 -107 41 -107 19 0 36 22 94 118 38
65 70 127 70 137 0 31 36 82 70 100 16 8 30 19 30 23 -1 4 -15 16 -33 27 -18
11 -42 40 -55 65 -22 44 -42 63 -42 40z"/>
<path d="M18935 7228 c-16 -6 -36 -12 -42 -14 -27 -7 -12 -26 17 -22 l30 5 0
-114 0 -113 -25 0 c-16 0 -25 -6 -25 -15 0 -12 15 -15 75 -15 60 0 75 3 75 15
0 10 -10 15 -30 15 l-30 0 0 135 c0 74 -3 135 -7 134 -5 -1 -21 -6 -38 -11z"/>
<path d="M13809 7118 l31 -42 -48 -43 c-26 -23 -40 -42 -32 -43 8 0 31 16 51
36 l36 36 23 -36 c12 -20 28 -36 36 -36 20 0 18 8 -12 47 l-26 35 43 44 c27
27 37 44 28 44 -8 0 -28 -13 -44 -30 -16 -16 -32 -30 -36 -30 -4 0 -16 14 -26
30 -9 17 -26 30 -36 30 -16 0 -15 -5 12 -42z"/>
<path d="M15005 6718 c-16 -6 -36 -12 -42 -14 -27 -7 -12 -26 17 -22 l30 5 0
-114 0 -113 -25 0 c-16 0 -25 -6 -25 -15 0 -12 15 -15 75 -15 60 0 75 3 75 15
0 10 -10 15 -30 15 l-30 0 0 135 c0 74 -3 135 -7 134 -5 -1 -21 -6 -38 -11z"/>
<path d="M3510 6003 c-14 -7 -33 -13 -42 -13 -10 0 -18 -7 -18 -16 0 -11 8
-15 28 -12 l27 3 0 -110 0 -110 -27 -3 c-58 -7 -25 -22 47 -22 43 0 75 4 75
10 0 6 -13 10 -30 10 l-29 0 -3 138 -3 138 -25 -13z"/>
<path d="M19570 5301 c0 -22 23 -68 48 -93 l26 -28 -212 0 c-135 0 -212 -4
-212 -10 0 -6 77 -10 212 -10 l211 0 -20 -22 c-12 -13 -32 -45 -46 -73 -13
-27 -49 -91 -79 -142 l-55 -92 -12 82 c-16 109 -19 117 -42 117 -17 0 -20 -5
-15 -27 3 -16 13 -70 22 -120 15 -85 18 -93 39 -93 18 0 36 22 90 113 37 61
69 125 71 140 4 36 37 82 74 104 30 17 39 33 20 33 -20 0 -79 63 -90 95 -11
32 -30 48 -30 26z"/>
<path d="M9760 4473 c0 -3 12 -22 26 -40 l26 -35 -48 -49 c-29 -29 -42 -49
-33 -49 8 0 30 16 49 35 19 19 37 35 41 35 4 0 17 -16 29 -35 12 -19 28 -35
36 -35 20 0 17 9 -15 55 l-28 39 46 43 c54 49 38 58 -20 11 -42 -34 -42 -34
-70 15 -9 16 -39 24 -39 10z"/>
<path d="M7270 3714 c-14 -7 -33 -14 -42 -14 -10 0 -18 -7 -18 -16 0 -12 7
-14 30 -9 l30 7 0 -111 0 -111 -25 0 c-16 0 -25 -6 -25 -15 0 -12 15 -15 76
-15 56 0 75 3 72 13 -3 6 -17 13 -31 15 l-27 3 0 135 c0 74 -3 134 -7 133 -5
-1 -19 -7 -33 -15z"/>
<path d="M3980 590 c0 -5 11 -10 25 -10 l26 0 -3 -147 c-3 -145 -3 -148 -25
-151 -13 -2 -23 -8 -23 -13 0 -5 34 -9 75 -9 72 0 105 15 48 22 -27 3 -28 5
-31 71 l-3 68 48 -3 c41 -3 48 -6 51 -25 7 -47 22 -21 22 37 0 33 -4 60 -10
60 -5 0 -10 -9 -10 -19 0 -22 -19 -31 -66 -31 l-34 0 0 70 0 70 73 0 c39 0 78
-4 85 -9 7 -4 20 -26 27 -47 12 -34 14 -35 15 -13 0 15 -3 41 -6 58 l-6 31
-139 0 c-86 0 -139 -4 -139 -10z"/>
<path d="M17343 593 l28 -4 -3 -152 -3 -151 -25 -7 c-14 -4 11 -7 60 -7 50 0
73 3 55 7 -30 6 -30 7 -33 79 l-3 72 33 0 c41 0 54 -8 67 -40 8 -20 10 -11 10
45 -1 57 -2 65 -10 44 -10 -27 -33 -39 -76 -39 -22 0 -23 4 -23 75 l0 75 64 0
c74 0 110 -21 120 -71 10 -49 16 -29 9 29 l-6 52 -146 -1 c-80 -1 -134 -4
-118 -6z"/>
<path d="M19316 584 c-11 -8 -32 -14 -48 -14 -15 0 -28 -5 -28 -11 0 -7 12 -9
35 -5 l35 7 0 -135 0 -136 -27 -6 c-52 -11 -48 -12 42 -12 50 1 78 3 63 5 -14
2 -31 10 -37 17 -6 7 -12 76 -13 158 -3 143 -3 146 -22 132z"/>
<path d="M19551 587 c-37 -19 -64 -61 -56 -86 4 -13 13 -21 23 -19 21 4 28 38
11 49 -10 6 -9 12 6 29 14 15 28 20 54 18 30 -2 39 -9 53 -38 10 -20 14 -46
11 -63 -3 -15 -40 -66 -83 -115 l-78 -87 95 -3 c53 -1 97 -1 98 0 1 2 5 21 8
43 6 34 5 37 -5 18 -10 -21 -18 -23 -81 -23 -39 0 -68 2 -66 4 2 2 31 27 64
55 92 80 110 117 84 175 -12 26 -63 56 -96 56 -10 0 -29 -6 -42 -13z"/>
<path d="M5935 568 c-49 -18 -50 -19 -12 -15 l37 3 0 -138 0 -138 -30 0 c-16
0 -30 -4 -30 -10 0 -6 33 -10 80 -10 47 0 80 4 80 10 0 6 -13 10 -30 10 l-30
0 0 155 c0 85 -3 154 -7 154 -5 -1 -30 -10 -58 -21z"/>
<path d="M6210 569 l-45 -19 35 3 35 2 0 -135 0 -135 -32 -3 c-67 -7 -30 -22
52 -22 82 0 119 15 53 22 l-33 3 -3 153 c-1 83 -6 152 -10 151 -4 -1 -27 -10
-52 -20z"/>
<path d="M17901 513 c-95 -47 -94 -191 2 -236 44 -21 86 -22 114 -2 14 10 24
12 28 5 13 -22 25 -8 25 30 0 27 6 42 18 49 13 8 1 10 -48 10 -42 -1 -56 -3
-40 -8 19 -5 26 -15 28 -37 3 -26 -2 -33 -26 -43 -37 -15 -74 -6 -104 26 -19
20 -23 35 -23 89 0 56 3 67 27 91 38 38 92 37 124 -1 13 -15 24 -34 24 -42 0
-8 5 -14 10 -14 6 0 10 23 10 52 0 48 -1 50 -17 35 -16 -13 -21 -14 -43 -2
-33 19 -68 18 -109 -2z"/>
<path d="M4338 508 c21 -10 22 -17 22 -120 0 -87 -3 -108 -14 -108 -8 0 -18
-4 -21 -10 -4 -6 16 -10 52 -10 50 1 56 2 41 14 -15 11 -18 30 -18 116 0 86 3
105 18 116 15 12 9 13 -43 13 -50 0 -56 -2 -37 -11z"/>
<path d="M4543 500 c-113 -69 -62 -240 72 -240 20 0 45 5 56 11 15 7 24 7 35
-2 12 -10 14 -4 14 34 0 35 4 47 18 50 9 3 -10 5 -43 4 -33 0 -50 -2 -37 -4
16 -3 22 -11 22 -32 0 -34 -17 -51 -52 -51 -42 0 -76 20 -93 55 -29 63 -12
146 36 170 56 30 101 14 127 -43 l17 -37 3 49 c3 52 -4 69 -18 46 -8 -12 -13
-13 -30 -2 -29 18 -91 15 -127 -8z"/>
<path d="M4795 510 c3 -5 13 -10 21 -10 11 0 14 -19 14 -92 1 -57 5 -99 13
-109 35 -46 111 -53 148 -13 21 22 24 37 28 115 2 66 7 92 17 96 28 10 13 23
-26 23 -22 0 -40 -4 -40 -10 0 -5 7 -10 15 -10 12 0 15 -17 15 -95 0 -106 -14
-135 -67 -135 -57 0 -73 35 -73 151 0 62 3 79 14 79 8 0 18 5 21 10 4 6 -15
10 -50 10 -35 0 -54 -4 -50 -10z"/>
<path d="M5113 507 c14 -12 17 -31 17 -117 0 -86 -3 -105 -17 -116 -16 -12
-11 -13 37 -13 48 0 53 1 38 13 -13 9 -18 27 -18 60 0 44 1 46 29 46 48 0 61
-9 61 -44 0 -44 25 -76 59 -76 28 0 51 16 51 34 0 6 -7 3 -15 -8 -21 -28 -41
-14 -54 39 -6 25 -18 48 -27 52 -12 4 -8 11 17 32 25 22 31 32 26 52 -10 38
-44 52 -137 56 -74 4 -83 2 -67 -10z m155 -25 c15 -19 15 -37 2 -63 -8 -14
-21 -19 -55 -19 l-45 0 0 48 c0 27 3 52 7 55 11 12 77 -4 91 -21z"/>
<path d="M5400 510 c0 -5 7 -10 15 -10 12 0 15 -18 15 -106 0 -90 -3 -109 -17
-120 -15 -11 -1 -13 95 -14 82 0 114 3 116 13 11 33 14 87 5 82 -5 -4 -9 -14
-9 -24 0 -31 -34 -51 -91 -54 l-54 -2 -3 58 -3 57 31 0 c23 0 33 -5 37 -20 9
-36 23 -21 23 25 0 46 -14 61 -23 25 -4 -15 -14 -20 -36 -20 -31 0 -31 1 -31
50 l0 50 61 0 c58 0 61 -1 72 -30 16 -42 25 -38 18 8 l-6 37 -108 3 c-69 2
-107 -1 -107 -8z"/>
<path d="M17688 510 c21 -9 22 -15 22 -115 0 -100 -1 -106 -22 -115 -18 -7 -9
-9 37 -9 46 0 55 2 38 9 -22 9 -23 15 -23 115 0 100 1 106 23 115 17 7 8 9
-38 9 -46 0 -55 -2 -37 -9z"/>
<path d="M18151 513 c14 -3 17 -22 21 -98 3 -82 7 -98 28 -120 41 -44 112 -42
147 4 7 10 12 49 13 99 0 68 3 85 20 102 l20 20 -42 0 c-34 -1 -39 -3 -25 -11
14 -8 17 -25 17 -98 0 -98 -12 -125 -62 -137 -21 -4 -33 0 -52 20 -24 23 -26
32 -26 116 0 85 1 91 23 100 16 7 7 9 -38 8 -33 0 -53 -2 -44 -5z"/>
<path d="M18458 510 c21 -9 22 -15 22 -115 0 -100 -1 -106 -22 -115 -17 -7 -8
-9 37 -8 33 0 52 2 43 5 -21 5 -31 38 -26 79 2 23 9 30 30 32 46 5 68 -14 68
-58 0 -41 26 -70 62 -70 18 0 52 29 43 38 -3 3 -11 -3 -19 -13 -17 -24 -34
-12 -42 30 -3 20 -15 46 -25 59 -19 24 -19 25 1 31 26 8 43 40 35 65 -11 35
-57 50 -147 49 -60 0 -77 -3 -60 -9z m146 -13 c24 -18 24 -67 0 -84 -11 -8
-35 -13 -54 -11 -30 3 -35 7 -38 32 -7 55 5 76 41 76 18 0 41 -6 51 -13z"/>
<path d="M18758 510 c21 -9 22 -15 22 -115 0 -100 -1 -106 -22 -115 -16 -6 14
-9 93 -9 113 -1 117 0 123 22 3 12 5 33 5 47 0 23 -2 22 -12 -8 -16 -43 -31
-52 -94 -52 l-53 0 0 55 c0 55 0 55 31 55 22 0 32 -5 36 -20 9 -36 23 -21 23
24 0 47 -14 69 -23 36 -4 -15 -14 -20 -36 -20 -31 0 -31 1 -31 50 l0 50 44 0
c60 0 76 -8 92 -44 l13 -31 1 43 0 42 -117 -1 c-81 0 -111 -3 -95 -9z"/>
</g>
</svg>
