<?xml version="1.0" standalone="no"?>
<!DOCTYPE svg PUBLIC "-//W3C//DTD SVG 20010904//EN"
 "http://www.w3.org/TR/2001/REC-SVG-20010904/DTD/svg10.dtd">
<svg version="1.0" xmlns="http://www.w3.org/2000/svg"
 width="2396.000000pt" height="1012.000000pt" viewBox="0 0 2396.000000 1012.000000"
 preserveAspectRatio="xMidYMid meet">
<metadata>
Created by potrace 1.16, written by Peter Selinger 2001-2019
</metadata>
<g transform="translate(0.000000,1012.000000) scale(0.100000,-0.100000)"
fill="#000000" stroke="none">
<path d="M5585 8110 c-968 -968 -1765 -1760 -1770 -1760 -6 0 -163 153 -350
340 l-339 339 29 31 c37 39 24 52 -15 15 l-31 -29 -1294 1294 c-712 712 -1295
1299 -1295 1305 0 5 17 26 37 47 20 21 35 39 32 42 -2 2 -71 31 -152 64 -108
43 -147 55 -142 43 3 -9 31 -78 62 -154 l56 -138 44 43 43 43 1295 -1295 c712
-712 1295 -1299 1295 -1304 0 -5 -10 -20 -22 -33 -28 -30 -15 -43 15 -15 13
12 28 22 33 22 5 0 162 -153 349 -340 l340 -340 -1052 -1052 -1052 -1052 -24
22 c-36 34 -55 27 -22 -8 l29 -31 -592 -592 -592 -592 -40 40 c-22 21 -43 35
-47 31 -9 -8 -122 -290 -119 -293 1 -2 71 25 155 59 l152 61 -43 44 -43 43
592 592 592 592 29 -27 c37 -36 51 -22 15 15 l-27 29 1052 1052 1052 1052
2473 -2473 c1359 -1359 2473 -2469 2475 -2464 1 4 -1107 1116 -2463 2472
-1356 1356 -2465 2470 -2465 2475 0 6 792 802 1760 1770 968 968 1760 1763
1760 1767 0 5 -3 8 -8 8 -4 0 -799 -792 -1767 -1760z"/>
<path d="M770 9688 c0 -7 9 -46 20 -87 19 -74 19 -75 -1 -103 -13 -17 -29 -28
-45 -28 -13 0 -24 -4 -24 -10 0 -5 14 -10 30 -10 28 0 37 10 103 113 40 61 77
118 81 125 4 7 2 12 -8 12 -8 0 -33 -30 -57 -67 -23 -38 -43 -63 -45 -58 -1 6
-7 36 -14 68 -7 37 -16 57 -26 57 -8 0 -14 -6 -14 -12z"/>
<path d="M17836 8409 c-9 -19 -38 -86 -65 -149 l-48 -115 58 -3 59 -3 0 -1264
c0 -837 3 -1265 10 -1265 7 0 10 428 10 1265 l0 1264 59 3 59 3 -63 149 -64
150 -15 -35z"/>
<path d="M7465 7704 c8 -19 24 -48 35 -65 l21 -29 -205 0 c-131 0 -206 -4
-206 -10 0 -6 75 -10 205 -10 l205 0 -30 -42 c-16 -22 -30 -46 -30 -53 0 -21
-130 -228 -134 -214 -2 8 -10 51 -17 97 -11 78 -27 108 -46 88 -4 -3 2 -58 12
-121 19 -113 19 -115 46 -115 23 0 35 14 93 111 36 61 66 120 66 131 0 32 37
85 76 109 l35 21 -36 22 c-39 24 -75 71 -75 99 0 9 -7 17 -15 17 -14 0 -14 -4
0 -36z"/>
<path d="M23295 7728 c-66 -5 -121 -11 -123 -13 -2 -2 8 -26 22 -54 l26 -51
-1970 -985 c-1083 -542 -1974 -985 -1978 -985 -5 0 -16 16 -25 35 -9 19 -21
35 -27 35 -14 0 -13 -5 9 -48 l19 -38 -699 -349 -699 -350 -2116 1058 c-1164
582 -2121 1056 -2127 1054 -7 -2 939 -479 2101 -1061 1161 -581 2112 -1058
2112 -1061 0 -3 -951 -480 -2112 -1061 -1162 -582 -2108 -1059 -2101 -1061 6
-2 963 472 2127 1054 l2116 1058 2110 -1055 2109 -1055 -26 -27 c-36 -38 -20
-49 18 -13 l30 30 565 -283 564 -282 -25 -50 c-14 -27 -25 -51 -25 -54 0 -2
39 -7 88 -10 48 -4 122 -9 166 -12 l78 -6 -107 126 c-60 69 -109 126 -111 126
-2 0 -15 -22 -29 -50 -14 -27 -27 -50 -30 -50 -8 0 -1089 542 -1103 553 -10 8
-8 15 9 33 32 34 14 43 -20 10 l-28 -27 -2102 1050 c-1155 578 -2101 1053
-2101 1056 0 7 1357 685 1370 685 6 0 18 -16 27 -35 16 -34 33 -46 33 -25 0 6
-7 25 -16 42 -13 25 -14 32 -2 40 17 12 3927 1968 3933 1968 3 0 17 -24 31
-52 l27 -53 34 40 c19 22 68 79 110 128 l74 87 -43 -1 c-24 -1 -97 -6 -163
-11z"/>
<path d="M23240 7318 l31 -43 -46 -43 c-25 -24 -45 -45 -45 -48 0 -15 31 1 60
31 19 19 37 35 41 35 4 0 16 -16 28 -35 11 -19 27 -35 36 -35 21 0 19 4 -16
52 l-30 43 48 42 c32 28 42 42 31 43 -10 0 -33 -14 -53 -31 l-35 -31 -20 23
c-10 13 -19 27 -20 32 0 4 -9 7 -21 7 -19 0 -19 -3 11 -42z"/>
<path d="M17490 7320 c0 -17 30 -72 53 -97 l20 -23 -206 0 c-126 0 -208 -4
-212 -10 -4 -7 67 -10 206 -10 205 0 212 -1 195 -18 -9 -11 -29 -43 -44 -73
-16 -30 -53 -96 -83 -148 l-54 -95 -14 102 c-14 97 -16 102 -39 102 -16 0 -22
-5 -19 -13 3 -7 13 -61 22 -120 17 -99 20 -107 41 -107 18 0 36 23 93 116 39
64 71 126 71 138 0 32 35 83 70 101 16 8 30 19 30 23 -1 4 -15 16 -33 27 -18
11 -42 40 -55 65 -22 44 -42 63 -42 40z"/>
<path d="M8450 7100 l0 -60 -1260 0 c-833 0 -1260 -3 -1260 -10 0 -7 427 -10
1260 -10 l1259 0 3 -59 3 -59 153 66 154 65 -148 63 c-82 35 -152 64 -156 64
-4 0 -8 -27 -8 -60z"/>
<path d="M2855 6894 c-10 -8 -29 -14 -42 -14 -15 0 -23 -6 -23 -16 0 -13 7
-15 30 -10 l30 6 0 -115 0 -115 -30 0 c-16 0 -30 -4 -30 -10 0 -6 32 -10 75
-10 43 0 75 4 75 10 0 6 -11 10 -25 10 l-25 0 0 134 c0 74 -3 137 -8 140 -4 2
-16 -2 -27 -10z"/>
<path d="M18990 6015 c-14 -8 -33 -14 -42 -15 -10 0 -18 -7 -18 -16 0 -12 7
-14 30 -9 l30 7 0 -111 0 -111 -30 0 c-20 0 -30 -5 -30 -15 0 -12 15 -15 75
-15 60 0 75 3 75 15 0 10 -10 15 -30 15 l-29 0 -3 134 -3 134 -25 -13z"/>
<path d="M2050 3954 c-14 -7 -33 -14 -42 -14 -10 0 -18 -7 -18 -16 0 -12 7
-14 30 -9 l30 7 0 -111 0 -110 -27 -3 c-14 -2 -28 -9 -31 -15 -3 -10 16 -13
72 -13 61 0 76 3 76 15 0 9 -9 15 -25 15 l-25 0 0 135 c0 74 -3 135 -7 134 -5
-1 -19 -7 -33 -15z"/>
<path d="M500 3683 c0 -3 12 -22 26 -40 l26 -35 -48 -49 c-29 -29 -42 -49 -33
-49 8 0 30 16 49 35 19 19 37 35 41 35 4 0 17 -16 29 -35 12 -19 28 -35 36
-35 20 0 17 9 -15 55 l-28 39 46 43 c54 49 38 58 -20 11 -42 -34 -42 -34 -70
15 -9 16 -39 24 -39 10z"/>
<path d="M22003 3212 c-50 -19 -55 -32 -13 -32 l30 0 0 -110 0 -110 -30 0
c-20 0 -30 -5 -30 -15 0 -12 15 -15 75 -15 60 0 75 3 75 15 0 9 -9 15 -25 15
l-25 0 0 135 c0 74 -3 134 -7 134 -5 -1 -27 -9 -50 -17z"/>
<path d="M23220 2763 c0 -10 9 -50 19 -90 18 -70 18 -72 -1 -103 -15 -26 -23
-31 -43 -26 -18 5 -25 2 -25 -9 0 -23 44 -18 67 8 24 26 141 201 149 222 4 9
0 15 -8 15 -7 0 -34 -33 -58 -72 -33 -54 -46 -68 -48 -53 -14 88 -25 125 -38
125 -8 0 -14 -8 -14 -17z"/>
<path d="M4040 791 c0 -5 10 -11 23 -13 22 -3 22 -6 25 -150 l3 -148 -26 0
c-14 0 -25 -4 -25 -10 0 -6 34 -10 82 -10 50 0 78 4 72 9 -5 5 -20 11 -34 13
-24 3 -25 7 -28 71 l-3 68 48 -3 c41 -3 48 -6 51 -25 7 -47 22 -21 22 37 0 58
-15 84 -22 38 -3 -20 -10 -23 -50 -26 l-48 -3 0 70 0 71 68 0 c78 0 100 -12
118 -61 12 -32 13 -32 13 -8 1 15 -2 41 -5 58 l-6 31 -139 0 c-79 0 -139 -4
-139 -9z"/>
<path d="M17400 791 l25 -7 3 -151 3 -152 -28 -4 c-16 -2 10 -4 57 -4 48 0 72
2 55 6 -30 6 -30 7 -33 79 -3 69 -2 72 20 72 44 0 67 -12 77 -39 8 -21 9 -13
10 44 0 56 -2 65 -10 45 -13 -32 -26 -40 -67 -40 l-33 0 3 73 3 72 55 3 c67 3
102 -14 115 -55 13 -39 30 -58 22 -23 -4 14 -7 40 -7 58 l0 32 -147 -1 c-82
-1 -137 -4 -123 -8z"/>
<path d="M19370 784 c-14 -7 -36 -17 -50 -23 -23 -10 -22 -11 13 -7 l38 5 -3
-137 -3 -137 -35 -6 c-21 -4 2 -6 55 -6 50 0 75 2 58 4 -41 5 -42 11 -46 183
l-2 136 -25 -12z"/>
<path d="M19689 778 c-8 -15 -12 -58 -10 -120 l3 -98 -61 0 c-34 0 -61 2 -61
5 0 3 25 42 56 86 31 44 54 82 52 84 -4 5 -128 -169 -128 -179 0 -4 32 -6 71
-6 l70 0 -3 -32 c-2 -25 -9 -34 -28 -39 -15 -4 5 -7 50 -7 45 0 65 3 50 7 -19
5 -26 15 -28 38 -3 28 0 32 25 36 l28 4 -27 2 -28 1 0 120 c0 120 -7 142 -31
98z"/>
<path d="M6020 775 c-14 -8 -35 -14 -48 -15 -13 0 -20 -4 -17 -10 3 -5 19 -7
35 -3 l30 6 0 -137 0 -136 -30 0 c-16 0 -30 -4 -30 -10 0 -6 33 -10 80 -10 47
0 80 4 80 10 0 6 -13 10 -30 10 l-30 0 0 155 c0 85 -3 155 -7 155 -5 -1 -19
-7 -33 -15z"/>
<path d="M6255 779 c-26 -16 -35 -29 -35 -56 0 -16 6 -23 19 -23 25 0 34 25
15 41 -13 11 -12 14 8 25 33 19 55 17 79 -7 38 -38 5 -118 -50 -120 -23 -1
-23 -2 6 -9 45 -10 60 -25 67 -64 14 -76 -32 -119 -99 -92 -38 16 -38 16 -19
37 18 20 18 21 -1 35 -17 12 -21 12 -34 -1 -14 -14 -14 -18 -1 -43 22 -37 57
-54 108 -49 99 10 134 118 53 164 l-29 17 29 27 c35 32 39 77 9 104 -24 21
-98 30 -125 14z"/>
<path d="M17965 710 c-100 -49 -102 -185 -5 -235 34 -17 106 -20 116 -4 3 6
17 8 30 5 22 -6 24 -4 24 34 0 22 5 40 10 40 6 0 10 5 10 10 0 6 -25 10 -57 9
-53 -1 -55 -2 -30 -12 20 -8 27 -18 27 -39 0 -69 -120 -60 -150 12 -20 49 -8
129 24 157 50 43 116 27 144 -35 l17 -37 3 49 c3 52 -2 66 -19 49 -8 -8 -20
-7 -45 3 -44 18 -51 18 -99 -6z"/>
<path d="M4603 700 c-74 -45 -84 -148 -21 -206 43 -39 97 -51 140 -30 23 12
34 13 44 5 11 -9 14 -3 14 34 0 35 4 47 18 50 9 3 -12 5 -48 4 -36 0 -53 -2
-37 -4 23 -4 27 -9 27 -38 0 -37 -12 -45 -66 -45 -64 0 -105 71 -90 154 8 43
57 86 97 86 32 0 79 -38 79 -64 0 -8 5 -18 10 -21 6 -4 10 14 10 46 0 49 -1
51 -17 36 -16 -13 -20 -14 -37 -1 -28 20 -85 17 -123 -6z"/>
<path d="M5160 710 c0 -5 7 -10 15 -10 12 0 15 -19 15 -110 0 -93 -3 -110 -17
-119 -14 -8 -5 -10 37 -10 42 0 51 2 38 10 -13 7 -18 23 -18 59 0 50 0 50 33
50 42 0 57 -15 57 -56 0 -31 21 -64 40 -64 5 0 15 -3 23 -6 16 -6 47 20 47 39
0 7 -9 2 -18 -11 -22 -29 -34 -18 -51 45 -7 23 -18 46 -27 51 -12 7 -10 11 11
22 59 31 36 93 -41 110 -53 13 -144 12 -144 0z m164 -26 c36 -36 9 -83 -52
-91 l-42 -6 0 57 0 56 39 0 c23 0 46 -7 55 -16z"/>
<path d="M17748 710 c21 -9 22 -15 22 -115 0 -100 -1 -106 -22 -115 -18 -7 -9
-9 37 -9 46 0 55 2 38 9 -22 9 -23 15 -23 115 0 100 1 106 23 115 17 7 8 9
-38 9 -46 0 -55 -2 -37 -9z"/>
<path d="M18212 708 c12 -10 17 -36 20 -98 3 -48 10 -95 18 -107 31 -48 106
-58 145 -18 23 22 25 32 25 110 0 72 3 88 20 105 l20 20 -42 0 c-38 -1 -41 -2
-25 -14 14 -11 17 -29 17 -100 0 -79 -2 -89 -25 -111 -32 -33 -68 -32 -94 1
-18 23 -21 41 -21 116 0 83 2 89 23 98 17 7 8 9 -37 9 -50 1 -57 -1 -44 -11z"/>
<path d="M18518 710 c21 -9 22 -15 22 -119 0 -96 -2 -110 -17 -114 -10 -3 7
-5 37 -5 30 0 47 2 38 5 -21 5 -31 38 -26 79 2 24 8 30 34 32 40 4 64 -19 64
-62 0 -19 8 -40 18 -49 26 -23 69 -22 82 3 13 24 2 27 -15 3 -16 -22 -33 -9
-41 32 -3 20 -15 46 -25 59 -18 23 -18 23 6 34 37 17 42 50 11 81 -24 24 -34
26 -119 28 -66 2 -86 0 -69 -7z m154 -18 c14 -14 13 -59 -2 -77 -8 -9 -29 -15
-56 -15 l-44 0 0 39 c0 65 7 74 53 68 22 -3 44 -10 49 -15z"/>
<path d="M18818 708 c21 -10 22 -17 22 -119 0 -94 -2 -108 -17 -112 -10 -3 32
-5 93 -6 123 -1 125 0 123 62 l-1 32 -9 -30 c-12 -42 -35 -55 -96 -55 l-53 0
0 55 c0 55 0 55 31 55 22 0 32 -5 36 -20 9 -36 23 -21 23 25 0 25 -4 45 -10
45 -5 0 -10 -6 -10 -14 0 -15 -21 -26 -51 -26 -16 0 -19 7 -19 55 l0 55 38 0
c60 0 83 -11 98 -44 l14 -31 -2 40 -3 40 -115 2 c-90 2 -110 0 -92 -9z"/>
<path d="M4398 703 c21 -4 22 -8 22 -114 0 -104 -1 -110 -22 -119 -18 -7 -9
-9 37 -9 45 0 56 2 43 10 -15 9 -18 26 -18 119 0 95 2 109 18 113 9 3 -10 5
-43 4 -33 0 -50 -2 -37 -4z"/>
<path d="M4868 700 c20 -9 22 -16 22 -95 0 -100 9 -121 57 -141 28 -12 42 -13
69 -4 49 16 64 52 64 149 0 66 3 82 18 90 13 8 7 10 -28 10 -35 0 -41 -2 -27
-10 14 -8 17 -25 17 -99 0 -105 -15 -130 -75 -130 -49 0 -65 35 -65 140 0 74
2 81 23 90 17 7 8 9 -38 9 -46 0 -55 -2 -37 -9z"/>
<path d="M5473 703 c15 -4 17 -18 17 -113 0 -93 -3 -111 -17 -119 -13 -8 14
-10 97 -8 l115 2 6 43 c6 48 -5 58 -15 12 -7 -36 -36 -50 -102 -50 l-44 0 0
60 c0 41 4 60 13 60 28 0 57 -13 57 -26 0 -7 5 -16 10 -19 6 -4 10 13 10 44 0
51 -13 69 -23 31 -4 -15 -14 -20 -36 -20 -31 0 -31 1 -31 50 l0 50 54 0 c59 0
86 -16 86 -51 0 -10 3 -19 8 -19 4 0 6 18 4 40 l-4 40 -112 -1 c-61 -1 -103
-3 -93 -6z"/>
</g>
</svg>
